<?xml version="1.0" encoding="utf-8"?>
<!-- Generator: Adobe Illustrator 23.0.3, SVG Export Plug-In . SVG Version: 6.00 Build 0)  -->
<svg version="1.1" id="Layer_1" xmlns="http://www.w3.org/2000/svg" xmlns:xlink="http://www.w3.org/1999/xlink" x="0px" y="0px"
	 viewBox="0 0 267.1 53.2" style="enable-background:new 0 0 267.1 53.2;" xml:space="preserve">
<style type="text/css">
	.st0{fill:#7B2834;}
	.st1{fill:#AADDF7;}
	.st2{fill:#285675;}
	.st3{fill:#6DC1B4;}
	.st4{fill:#C6422E;}
	.st5{fill:#ACA8D3;}
	.st6{fill:#FFDF7D;}
	.st7{fill:#827463;}
	.st8{fill:#216CB4;}
	.st9{fill:#10334A;}
	.st10{fill:#9D9D9C;}
</style>
<g>
	<g>
		<g>
			<path class="st0" d="M44.7,0C42.6,0.2,41,1.9,41,3.8c0,0.1,0,0.2,0,0.3l1.9,0.9c0,0.2,0,0.5,0,0.5c0,0.2,0.3,0.5,0.4,0.5
				c0,0.1,0,0.2,0,0.2c0,0,0.1,0.2,0.3,0.3c0,0.2,0,0.8,0,1c-0.2-0.1-0.3-0.1-0.3-0.1c0,0,0,0,0,0c0,0,0,0,0,0l-0.6,0.7
				c0,0,0,0,0,0.2c-0.7,0.3-3.1,1.4-3.6,2.1c-0.2,0.3-0.8,2.2-1,4.9c-0.3,3.6,0.2,8.4,0.2,8.4l0.4-0.1c-0.1,0.4-0.4,2-0.4,2.4
				c0,0.3,1,1.5,1.2,1.7c0.1,0.2,0.6-0.4,0.6-0.5c-0.1-0.1-0.5-0.9-0.5-0.9l0.1-1c0,0,0.2,0.9,0.2,1c0,0.1,0.5,0.1,0.5,0.1
				c0-0.1,0-1.7,0-1.9c0-0.1-0.3-1.1-0.3-1.2l0.2,0l0.7-7.2l0,6.7l0,0l0.2,21.6c0,0,0,0,0,0c-0.2,0.4-0.3,0.8-0.3,0.8
				S40.8,45.9,41,46c0.4,0.2,0.9,0.2,1.2,0.2c0.3,0,0.9,0,1.2-0.2c0.2-0.1,0.2-0.7,0.2-0.7s-0.1-0.4-0.3-0.8c0,0,0,0,0,0l1.9-18.2
				l0,0l0,0l1.9,18.2c0,0,0,0,0,0c-0.2,0.4-0.3,0.8-0.3,0.8S46.8,45.9,47,46c0.4,0.2,0.9,0.2,1.2,0.2c0.3,0,0.9,0,1.2-0.2
				c0.2-0.1,0.2-0.7,0.2-0.7s-0.1-0.4-0.3-0.8c0,0,0,0,0,0l0.1-21.6l0,0l0-6.7l0.7,7.2l0.2,0c0,0.1-0.3,1-0.3,1.2c0,0.1,0,1.8,0,1.9
				c0,0.1,0.4,0.1,0.5-0.1c0-0.1,0.2-1,0.2-1l0.1,1c0,0-0.4,0.8-0.5,0.9c0,0.1,0.5,0.7,0.6,0.5c0.1-0.2,1.1-1.5,1.2-1.7
				c0-0.3-0.3-2-0.4-2.4l0.4,0.1c0,0,0.5-4.7,0.2-8.4c-0.2-2.6-0.7-4.6-1-4.9c-0.5-0.7-3-1.9-3.6-2.1c0-0.1,0-0.2,0-0.2L47,7.6
				c0,0,0,0,0,0s0,0,0,0l0,0c0,0,0,0,0,0c0,0-0.1,0-0.3,0.1c0-0.3,0-0.8,0-1C46.9,6.5,47,6.4,47,6.3c0,0,0-0.1,0-0.2
				c0.1-0.1,0.4-0.4,0.4-0.5c0,0,0-0.3,0-0.5l2-1.1c0,0,0-0.1,0-0.1C49.5,1.9,48,0.4,46,0"/>
			<path class="st1" d="M23.3,24.4l0.1,0c0,0,0.2-2.3,0.3-5c0-0.2,0-0.3,0-0.5c0-1,0-2-0.1-2.9c-0.1-0.7-0.1-1.3-0.2-1.9
				c-0.1-1.5-0.3-2.5-0.6-2.9c-0.2-0.2-0.5-0.5-0.9-0.7c-1-0.6-2.4-1.3-2.9-1.5c0-0.1,0-0.2,0-0.2l-0.6-0.7c0,0,0,0,0,0s0,0,0,0l0,0
				c0,0,0,0,0,0c0,0-0.1,0-0.3,0.1c0-0.2,0-0.6,0-0.8c0.2-0.2,0.3-0.3,0.3-0.4c0,0,0-0.2,0.1-0.4c0.1-0.1,0.4-0.3,0.4-0.5
				c0-0.1,0.1-0.9-0.1-0.9c0,0,0,0,0,0c0.2-0.5,0.3-1.4,0-2.2c-0.2-0.4-0.4-0.7-0.6-0.7c-0.1-0.1-0.4-0.1-0.4-0.1
				c0,0-0.9-0.5-1.7-0.4c-0.8,0.1-1.8,0.8-1.9,1.7C14,4.4,14.2,5,14.3,5.4c-0.1,0.1-0.1,0.8-0.1,0.9c0,0.2,0.3,0.4,0.4,0.5
				c0,0.2,0,0.4,0.1,0.4c0,0.1,0.1,0.2,0.2,0.3c0,0.3,0,0.7,0,0.9c-0.2-0.1-0.3-0.1-0.3-0.1c0,0,0,0,0,0c0,0,0,0,0,0L14,8.9
				c0,0,0,0,0,0.2c-0.5,0.2-1.9,0.9-2.8,1.5c-0.4,0.3-0.7,0.5-0.9,0.7c-0.3,0.4-0.5,1.4-0.6,2.9c-0.1,0.6-0.2,1.2-0.2,1.9
				C9.4,17,9.4,18,9.4,19c0,0.2,0,0.3,0,0.5c0,2.6,0.3,5,0.3,5l0.1,0c0,0.1,0,0.2,0,0.2l0.3,0c-0.1,0.6-0.4,1.9-0.3,2.2
				c0,0.3,1,1.5,1.2,1.7c0.1,0.2,0.6-0.4,0.6-0.5c-0.1-0.1-0.5-0.9-0.5-0.9l0.1-1c0,0,0.2,0.9,0.2,1c0,0.1,0.5,0.1,0.5,0.1
				c0-0.1,0-1.7,0-1.9c0-0.1-0.2-0.6-0.3-1l0.3,0l0.4-6.7l0.1-0.7l0,0.1l-0.1,6.6h0.1l0,0h0.1l-0.6,21.5l0.8,0c0,0,0,0,0,0
				c-0.2,0.4-0.3,0.8-0.3,0.8s-0.1,0.6,0.2,0.7c0.4,0.2,0.9,0.2,1.2,0.2c0.3,0,0.9,0,1.2-0.2c0.2-0.1,0.2-0.7,0.2-0.7
				s-0.1-0.4-0.3-0.8c0,0,0,0,0,0l0.6,0l1.3-18.2l0,0l0,0l1.3,18.2l0.6,0c0,0,0,0,0,0c-0.2,0.4-0.3,0.8-0.3,0.8s-0.1,0.6,0.2,0.7
				c0.4,0.2,0.9,0.2,1.2,0.2c0.3,0,0.9,0,1.2-0.2c0.2-0.1,0.2-0.7,0.2-0.7s-0.1-0.4-0.3-0.8c0,0,0,0,0,0l0.5,0l0,0l0,0l0-0.8
				l-0.3-20.7h0.1l0,0h0l0-0.8l-0.1-5.8l0.1,0.6l0.4,6.7l0.3,0c-0.1,0.3-0.2,0.9-0.3,1c0,0.1,0,1.8,0,1.9c0,0.1,0.4,0.1,0.5-0.1
				c0-0.1,0.2-1,0.2-1l0.1,1c0,0-0.4,0.8-0.5,0.9c0,0.1,0.5,0.7,0.6,0.5c0.1-0.2,1.1-1.5,1.2-1.7c0-0.3-0.2-1.6-0.3-2.2l0.3,0
				C23.2,24.6,23.3,24.5,23.3,24.4z"/>
			<path class="st2" d="M68.4,18c-0.2-0.2-0.1-1.3-0.3-2.1c-0.3-1.1-0.7-2.1-0.7-2.1s0,0,0,0c0,0,0,0,0,0c0,0,0,0,0,0
				c-0.1-0.2-0.4-0.2-0.9-0.1c-0.1-0.7-0.4-1.6-0.6-1.9c-0.3-0.4-0.6-0.5-0.9-0.6l0,0l0,0c-0.2-0.1-0.3-0.1-0.4-0.1l0,0c0,0,0,0,0,0
				c-0.2-0.1-0.4-0.1-0.6-0.2c-0.6-0.1-1.5-0.8-1.5-0.9c0-0.1,0-0.8,0-1.1c0.3-0.2,0.5-0.6,0.7-1.2c0,0.1,0,0.2,0.1,0.1
				c0,0,0.3-0.3,0.3-0.4c0-0.1,0.2-0.7,0.1-0.8c-0.1-0.1-0.2-0.2-0.3,0C63.3,7,63.3,7,63.3,7s0,0.3-0.1,0.6c0,0,0,0,0,0
				c0.1-0.4,0.1-0.7,0.1-1.1c0,0.1,0.1,0,0.1-0.1c0,0,0,0,0,0c0-0.1,0-0.1,0-0.1c0.1-0.6,0.1-1.2-0.2-1.6C63.2,4.4,63,4.2,62.8,4
				c0.1-0.1,0.2-0.3,0.2-0.5c0-0.1,0-0.1,0-0.2c0,0,0-0.1,0-0.1c0-0.1,0-0.1-0.1-0.2C62.7,2.7,62,2.5,61,2.5c-1.3,0-2,0.4-2,1
				c0,0,0,0.1,0,0.1c0,0,0,0.1,0,0.1c0,0.1,0,0.1,0.1,0.1c0,0.1,0.1,0.1,0.2,0.2c-0.2,0.1-0.4,0.3-0.5,0.6c-0.3,0.5-0.4,1-0.2,1.5
				c0,0.1,0,0.1,0.1,0.2c0,0.3,0.1,0.5,0.1,0.4c0,0,0,0,0,0c0,0.3,0.1,0.6,0.1,0.8c0,0,0,0,0,0C58.7,7.3,58.7,7,58.7,7s0,0-0.1-0.1
				c-0.1-0.1-0.2-0.1-0.3,0c-0.1,0.1,0.1,0.7,0.1,0.8c0,0.1,0.3,0.4,0.3,0.4c0.1,0.1,0.1,0,0.1-0.1c0.2,0.6,0.4,1,0.7,1.2
				c0,0.3,0,0.9,0,1.1c0,0.1-0.9,0.7-1.5,0.9c-0.3,0.1-0.5,0.1-0.6,0.2c-0.1,0-0.1,0-0.2,0c0,0,0,0,0,0l0,0c0,0-0.2,0-0.4,0.1l0,0
				l0,0c-0.2,0.1-0.5,0.2-0.7,0.5c-0.1,0.1-0.2,0.3-0.3,0.5c0,0.1-0.1,0.2-0.1,0.3c-0.3,0.9-0.5,2.2-0.5,2.2l0,0c0,0,0,0,0,0
				c-0.2,1.1-0.6,3.2-0.7,3.5c-0.1,0.3-0.2,0.4-0.2,0.6c0,0.1-0.1,0.1-0.1,0.3c0,0,0,0,0,0c0,0,0,0,0,0c0,0.1,0,0.1,0,0.2
				c0,0.4,0.2,1.3,0.5,1.7c0.2,0.4,1.3,2.6,1.3,2.6l0.7-0.4c0,0,0,0,0,0l-0.7,0.4c0,0,0.5,0.9,0.8,1.4c0,0.4,0,0.8,0,1.2
				c0,0,0,0,0,0c0,0.1,0,0.2,0,0.3c0.1,0.8,1.3,8.7,1.3,8.7s-0.2,2.6-0.1,3.2c0.1,0.5,0.8,4.1,1.1,5.6h0c0.1,0.4,0.2,0.7,0.2,0.7
				c0,0.2,0,0.3-0.1,0.5c0,0,0,0,0,0c0,0-0.2,0.3-0.3,0.6c-0.1,0.2-0.2,0.4-0.3,0.5c0,0,0,0,0,0.1c0,0.1,0,0.2,0,0.3
				c0,0.2,0,0.7,0.7,0.8c1.1,0.1,1.1-0.3,1.3-0.7c0.1-0.3,0.1-1,0.1-1l0-0.1c0,0,0,0,0,0c0-0.3-0.1-0.4-0.1-0.4s0,0,0,0l0-0.4
				c0,0-0.1-0.6-0.2-1.4c0-1.1,0.1-2.7,0.1-3.8c0.1-1.8-0.3-3.5-0.2-3.9c0-0.1,0-0.1,0-0.2c0-0.1,0-0.2,0.1-0.3
				c0-0.1,0.1-0.2,0.1-0.4c0.1-0.3,0-0.9,0-1.4c0.1-0.4,0.2-1.4,0.3-3.6c0.2-2-0.2-3.5-0.2-3.7c0.1,0,0.3,0.1,0.4,0.1
				c0.1,0,0.4-0.1,0.4-0.1c0,0,0,0.1,0,0.1c-0.1,0.4-0.3,1.7-0.2,3.6c0.2,2.2,0.3,3.2,0.3,3.6c0.1,0.4,0,1.1,0,1.4
				c0.1,0.3,0.1,0.4,0.2,0.9c0.1,0.4-0.2,2.1-0.2,3.9c0,1.1,0.1,2.6,0.1,3.8c0,0.3,0,0.6-0.1,0.8h0c0,0.4-0.1,0.6-0.1,0.6l0,0.4
				c0,0,0,0,0,0s0,0.2-0.1,0.4l0,0.1c0,0,0,0.7,0.1,1c0.1,0.5,0.1,0.8,1.3,0.7c0.7,0,0.7-0.6,0.7-0.8c0-0.1,0-0.2,0-0.3
				c0,0,0,0,0-0.1c0-0.1-0.2-0.3-0.3-0.5c-0.2-0.3-0.3-0.6-0.3-0.6c0,0,0,0,0,0c0-0.1-0.1-0.3-0.1-0.4c0,0,1.2-5.8,1.3-6.4
				c0.1-0.6-0.1-3.2-0.1-3.2s0.1-0.6,0.2-1.6c0.3-2.1,0.9-5.7,1-6.8c0-0.1,0-0.2,0-0.3c0-0.1,0-0.3,0-0.4c0,0,0-0.1,0-0.1
				c0,0,0,0,0,0c0-0.9-0.1-1.7-0.2-2.4c-0.1-0.5-0.2-0.9-0.3-1.1c0,0,0,0,0,0c0.2-0.1,0.3-0.3,0.5-0.5c0.2,0,0.5-0.1,0.7-0.3
				c0.5-0.4,2.1-0.4,2.5-1.2C69,19.8,68.8,18.6,68.4,18z M63.4,6.5C63.4,6.5,63.4,6.5,63.4,6.5C63.4,6.5,63.4,6.5,63.4,6.5
				C63.4,6.5,63.4,6.5,63.4,6.5z M56.4,21.2c-0.1-0.4-0.3-1.1-0.6-1.6c0.3-0.9,0.7-2.7,0.9-3.4c0.1-0.2,0.1-0.5,0.2-0.8l0.2,0l0,0
				l0,0l0.4,0v0.2c0,0,0,0.1,0,0.2v5.3c-0.3,0.6-0.5,1.2-0.7,1.7C56.6,22.3,56.4,21.5,56.4,21.2z"/>
			<path class="st3" d="M68.6,49.4c-0.3,0-0.6,0-1,0c-0.2,0-0.4,0-0.3,0.3c0,0,0,0.1,0,0.1c-0.3,0.1-0.3,0.4-0.4,0.6
				c-0.1,0.1,0,0.2,0,0.3c0,0.1,0.1,0.1,0,0.2c-0.1,0.1-0.1,0.2-0.2,0.2c-0.2,0.1-0.5,0.1-0.7,0.3c0,0-0.1,0-0.2,0
				c-0.1,0-0.2,0-0.3,0c-0.4,0-0.8-0.1-1-0.4c-0.2-0.3-0.5-0.5-0.4-0.9c0-0.1-0.1-0.2-0.1-0.2c-0.3-0.5-0.4-1-0.4-1.6
				c0-0.4,0-0.3-0.4-0.4c-0.3-0.1-0.6-0.2-0.7-0.5c-0.1-0.2-0.2-0.4-0.3-0.6c-0.1-0.2-0.3-0.5-0.3-0.8c-0.3-1.3-0.4-2.5-0.4-3.8
				c0-0.7-0.1-1.4,0-2.1c0.1-0.9,0-1.8,0.2-2.7c0.1-0.5,0.2-1,0.2-1.6c0-0.2,0.1-0.5,0.1-0.7c-0.1-0.7-0.2-1.3-0.4-1.9
				c-0.3-0.9-0.5-1.7-0.6-2.6c0-0.3,0-0.7,0-1c0.2-0.6,0.4-1.1,0.6-1.6c0.1-0.3,0.3-0.7,0.4-1c0.1-0.3,0.2-0.6,0.4-0.9
				c0.1-0.3,0.3-0.5,0.5-0.8c0.2-0.3,0.3-0.7,0.5-1c0.1-0.3,0.2-0.6,0.4-0.8c0.2-0.3,0.5-0.6,0.9-0.7c0.3-0.1,0.7-0.3,1-0.4
				c0.2-0.1,0.4-0.2,0.6-0.3c0.5-0.1,0.9-0.4,1.2-0.7c0,0,0.1-0.1,0.1-0.1c0.1-0.1,0.3-0.2,0.5-0.3c0.1,0,0.2-0.1,0.2-0.1
				c0.1-0.2,0-0.7-0.1-0.9c-0.2-0.2-0.3-0.4-0.3-0.7c0-0.2,0-0.4,0-0.6c0-0.2,0-0.4,0.2-0.6c0.1-0.1,0.1-0.2,0.1-0.4
				c0-0.1,0-0.3,0-0.4c0-0.5,0.1-0.9,0.6-1.2c0.2-0.1,0.4-0.1,0.5-0.2c0.2-0.1,0.3-0.1,0.5-0.2c0.1,0,0.2,0,0.3,0
				c0.2,0.1,0.4,0.2,0.6,0.2c0.4,0,0.7,0.3,0.9,0.6c0.2,0.3,0.4,0.6,0.3,1c0,0.2,0,0.3,0,0.5c0,0.2,0,0.3,0.1,0.5
				c0.1,0.1,0.1,0.2,0.1,0.3c0,0.3-0.1,0.6-0.1,1c0,0,0,0.1,0,0.1c-0.1,0.2-0.1,0.4-0.2,0.6c-0.1,0.2-0.1,0.3-0.2,0.5
				c-0.1,0.1-0.1,0.2,0,0.3c0.3,0.1,0.4,0.3,0.6,0.5c0.2,0.3,0.4,0.4,0.7,0.5c0.4,0.1,0.8,0.3,1.2,0.4c0.2,0.1,0.5,0.3,0.7,0.5
				c0.4,0.5,0.7,1.1,0.7,1.8c0,0.2,0.1,0.4,0.1,0.6c0.1,0.3,0.2,0.5,0.3,0.7c0.1,0.5,0.2,1,0.4,1.5c0.1,0.3,0.3,0.6,0.4,0.9
				c0.2,0.8,0.5,1.7,0.4,2.5c0,0,0,0.1,0,0.1c0,0.2,0.1,0.4,0.4,0.5c0.6,0.2,1,0.7,1.2,1.3c0.1,0.2,0.1,0.4,0,0.6
				c0,0.2-0.1,0.4,0,0.6c0.2,0.8,0.2,1.7,0.2,2.6c0,0.5,0,1.1-0.1,1.6c0,0.2,0,0.4,0,0.7c0,0.4-0.1,0.9,0.2,1.3
				c0.1,0.2,0.2,0.4,0.2,0.6c0.2,1.2,0.4,2.3,0.6,3.5c0.1,0.5,0.2,1,0.3,1.4c0,0.5,0.3,0.6,0.7,0.7c0.3,0,0.5,0.2,0.6,0.4
				c0.1,0.1,0.1,0.2,0.2,0.3c0.1,0.2,0.2,0.3,0.1,0.5C81,47.8,81,48.1,80.7,48c0,0-0.1,0-0.2,0c-0.6,0.1-1.1,0.5-1.7,0.5
				c-0.1,0-0.1,0-0.2,0c-0.1,0-0.2,0.1-0.2,0.2c-0.2,0.5-0.6,0.8-1,1c-0.1,0.1-0.3,0.1-0.3,0.3c0,0.1-0.1,0.1-0.2,0.1
				c-0.8,0.2-1.3,0.1-2.1-0.4c0,0,0,0-0.1,0c-0.2-0.2-0.6-0.2-0.5-0.6c0,0,0-0.1-0.1-0.1c-0.3-0.3-0.5-0.7-0.6-1.1
				c0-0.1,0-0.2-0.2-0.1c-0.1,0-0.1,0.1-0.1,0.2c0.2,0.3,0.2,0.7,0.2,1c0,0.1,0,0.2-0.1,0.1c-0.2-0.1-0.3,0-0.3,0.2
				c0,0.1-0.1,0.2-0.2,0.2c-0.1,0-0.2,0-0.2,0C71.4,49.5,70,49.5,68.6,49.4C68.6,49.4,68.6,49.4,68.6,49.4z M63.1,45.9
				c0,0.1,0,0.1,0.1,0.2c0,0,0.1,0,0.1,0c0,0,0-0.1,0-0.1c-0.1-0.2-0.1-0.4-0.2-0.6c0-0.1,0-0.2,0-0.4c0,0,0-0.1,0-0.1
				c0,0-0.1,0-0.1,0.1c-0.1,0.3-0.2,0.7-0.2,1c0,0,0,0.1,0,0.1c0,0,0.1,0,0.1-0.1C63,46,63,45.9,63.1,45.9c0-0.2,0-0.3,0-0.5
				C63.1,45.6,63.1,45.7,63.1,45.9z M63.3,45.4C63.3,45.4,63.3,45.4,63.3,45.4C63.3,45.4,63.3,45.4,63.3,45.4
				c0.1-0.1,0.1-0.3,0.1-0.4c0-0.2,0-0.5,0-0.7c0-0.2-0.1,0-0.1,0c0-0.2,0-0.4,0-0.5c0-0.2,0.1-0.3,0.1-0.5c0-0.2,0.1-0.5,0.1-0.7
				c0-0.1,0-0.2-0.1-0.2c-0.1,0-0.1,0.1-0.1,0.2c0,0.4-0.1,0.8-0.1,1.2c0,0.3-0.1,0.5-0.1,0.8c0,0.1,0,0.2,0.1,0.1
				C63.3,44.9,63.3,45.1,63.3,45.4z M74.3,38.1C74.3,38.1,74.3,38.1,74.3,38.1c-0.1-0.1-0.1,0-0.1,0c0,0.2,0.1,0.3,0.1,0.5
				c0,0.1,0,0.3,0,0.4c0,0,0,0.1,0,0.1c0,0,0,0,0.1-0.1c0.1-0.1,0.1-0.2,0.2-0.3c0,0,0.1,0,0.1,0c0,0,0,0.1,0,0.1
				c0,0.1-0.1,0.1-0.1,0.2c0,0,0,0.1,0,0.2c0,0,0.1,0.1,0.2,0.1c0-0.1,0-0.1,0-0.2c0-0.4,0.1-0.7,0.1-1.1c0-0.2-0.1-0.3-0.2-0.3
				c-0.2,0-0.1,0.2-0.1,0.3c0,0.2,0,0.4,0,0.5c0,0,0,0.1,0,0.1c0,0-0.1-0.1-0.1-0.1C74.3,38.4,74.3,38.3,74.3,38.1z M63.7,39
				C63.8,39,63.8,39,63.7,39c0-0.1-0.1-0.3-0.1-0.4c0-0.2,0-0.3,0.1-0.5l0,0c0-0.1,0.1-0.1,0.1-0.2c0-0.3,0-0.7,0-1
				c0,0,0-0.1-0.1-0.1c0,0,0,0.1,0,0.1c0,0.2-0.1,0.3-0.2,0.3c-0.2,0-0.2,0.1-0.1,0.2c0,0.7,0.1,1.4,0.1,2c0,0.1,0,0.1,0.1,0.2
				c0.1,0,0.2-0.1,0.2-0.1c0-0.1,0-0.3,0-0.4c0-0.2-0.1-0.4-0.1-0.7c0,0,0-0.1,0-0.1c0,0,0.1,0.1,0.1,0.1
				C63.7,38.7,63.7,38.9,63.7,39z M71.5,42.6c0,0.2,0,0.3,0.1,0.4c0.4,0.4,0.7,0.9,0.8,1.5c0,0.1,0.1,0.2,0.1,0.3
				c0.1,0.1,0.1,0.2-0.1,0.3c-0.2,0.1-0.2,0.2-0.1,0.4c0.1,0.3,0.1,0.5,0.2,0.8c0,0,0.1,0.1,0.1,0.1c0.3,0,0.6-0.1,0.9-0.2
				c0.2,0,0.2-0.2,0.3-0.3c0.1-0.1,0.1-0.2,0.2-0.3c0.2-0.2,0.2-0.2,0.1-0.5c-0.2-0.6-0.5-1.2-0.7-1.8c-0.2-0.4-0.2-0.9-0.3-1.4
				c0-0.2-0.1-0.3-0.3-0.3c-0.3-0.1-0.6-0.3-0.9-0.5c0,0-0.1-0.1-0.1-0.1c-0.2-0.1-0.3-0.1-0.2,0.2C71.8,41.6,71.6,42.1,71.5,42.6z
				 M69.6,46.3c0,0,0.1,0,0.1-0.1c0,0-0.1-0.1-0.1-0.1c-0.2,0-0.2-0.1-0.2-0.2c0-0.5-0.2-0.9-0.5-1.3c-0.1-0.1-0.1-0.3-0.1-0.4
				c0.1-0.3,0-0.6-0.1-0.8c-0.1-0.4-0.2-0.8-0.2-1.3c0-0.2-0.1-0.4-0.2-0.6c0,0-0.1-0.1-0.2,0c-0.3,0.2-0.6,0.3-0.9,0.5
				c0,0-0.1,0.2-0.1,0.2c0,0.7,0,1.4,0,2.1c0,0.6,0,1.2,0.1,1.8c0,0.2,0.1,0.3,0.2,0.2c0.2,0,0.5,0,0.7,0c0,0,0,0,0,0
				C68.8,46.3,69.2,46.3,69.6,46.3z M62.7,33.4c0,0.1,0,0.2,0.2,0.1c0.1,0,0.2,0,0.2,0c0.2-0.1,0.4-0.1,0.6,0.1
				c0.1,0.1,0.2,0.1,0.2-0.1c0-0.3,0-0.6,0-0.9c0-0.2,0-0.3,0-0.5c0-0.2,0-0.2-0.2-0.2c-0.3,0-0.3-0.1-0.3-0.3c0-0.3,0-0.3,0.3-0.4
				c0.2,0,0.3,0,0.5-0.1c0.2,0,0.3-0.1,0.3-0.3c0-0.3,0-0.6,0-0.9c0-0.7,0-1.4,0-2.1c0-0.1,0-0.2,0-0.2c0-0.1-0.1-0.1-0.1-0.1
				c-0.1,0-0.1,0-0.2,0.1c-0.1,0.2-0.3,0.4-0.4,0.6c-0.2,0.4-0.6,0.7-0.8,1c-0.1,0.1-0.1,0.2-0.1,0.4c0,0.7,0,1.4-0.1,2.1
				c0,0.4-0.1,0.7-0.1,1.1c0,0,0,0,0,0C62.7,32.9,62.7,33.2,62.7,33.4z M65.6,43.9c-0.3-0.4-0.6-0.8-0.9-1.1c0,0-0.1-0.1-0.1-0.1
				c0,0,0,0.1,0,0.1c0,0.9-0.1,1.8-0.3,2.7c0,0.2,0,0.2,0.2,0.1c0.4-0.1,0.7-0.2,1.1-0.1c0,0,0.1,0,0.1,0c0.1-0.1,0.2-0.2,0.3-0.3
				c0.1-0.1,0.3-0.1,0.2-0.3C66.2,44.4,65.9,44.2,65.6,43.9z M66.1,40.7c0-0.2-0.1-0.2-0.2-0.1c-0.1,0-0.2,0.1-0.3,0.1
				c-0.3-0.1-0.3-0.2-0.2-0.5c0-0.1,0.1-0.1,0.1-0.2c0.1-0.1,0.1-0.1,0.2,0c0.1,0.1,0.2,0.1,0.2,0.2c0-0.1,0.1-0.2,0.1-0.3
				c0-0.3,0-0.7-0.1-1c0-0.1-0.1-0.1-0.2,0c-0.1,0.1-0.2,0.2-0.2,0.3c0,0-0.1,0.1-0.2,0.1c-0.1,0-0.1,0-0.2,0
				c-0.2,0-0.3,0.1-0.3,0.3c0,0.2,0,0.4,0.2,0.5c0.1,0.1,0.1,0.1,0,0.2c-0.4,0.3-0.4,0.7-0.5,1.2c0,0.3,0,0.5,0.2,0.7
				c0.1,0.1,0.2,0.1,0.3,0.1c0.2-0.1,0.4-0.3,0.7-0.4c0.2-0.1,0.3-0.3,0.3-0.5c0-0.1,0-0.1,0-0.2c0,0,0,0,0,0
				C66.1,41,66.1,40.8,66.1,40.7z M73.6,29.5c0,0.4,0.1,0.9,0.1,1.3c0,0.2,0,0.5,0.1,0.7c0,0,0.1,0,0.1,0.1c0,0,0-0.1,0-0.1
				c0-0.1,0-0.1,0-0.2c0-0.1,0-0.2,0.2-0.2c0.1,0,0.2,0,0.3,0c0.1,0,0.2-0.1,0.2-0.2c0-0.1,0-0.1,0-0.2c-0.1-0.7-0.2-1.3-0.4-2
				c-0.1-0.5-0.3-0.9-0.5-1.4c0,0-0.1-0.1-0.1-0.1c0,0-0.1,0.1-0.1,0.1c0,0.1,0,0.3,0,0.4c0,0,0,0,0,0
				C73.6,28.4,73.6,28.9,73.6,29.5z M66.6,38.5c0,0.1,0.1,0.2,0.1,0.3c0.1,0.3,0.1,0.7,0.2,1.1c0,0.2,0.1,0.3,0.1,0.5
				c0,0.2,0.1,0.3,0.2,0.4c0,0.2,0.1,0.1,0.2,0.1c0,0,0.1,0,0.1-0.1c0.6-0.3,0.6-0.3,0.4-1c-0.1-0.3-0.2-0.7-0.3-1
				c-0.1-0.3-0.1-0.3-0.4-0.3c-0.1,0-0.1,0-0.2,0c0,0,0,0,0,0C66.8,38.5,66.7,38.5,66.6,38.5z M73,40.3c0-0.4-0.1-0.8-0.1-1.2
				c0,0,0,0,0-0.1c0-0.4-0.1-0.4-0.4-0.2c-0.4,0.2-0.7,0.5-1.1,0.7c-0.2,0.1-0.2,0.3,0,0.4c0.3,0.2,0.7,0.4,1,0.5
				c0.1,0,0.2,0.1,0.2,0.1C73,40.5,73,40.5,73,40.3z M62,39.3c0-0.1,0-0.2,0-0.3c0,0-0.1-0.1-0.1-0.1c-0.1,0-0.1,0.1-0.2,0.1
				c0,0.1,0,0.2,0,0.3c0,0.9,0,1.8,0,2.8c0,0.6,0.1,1.3,0.1,1.9c0,0.1,0.1,0.1,0.1,0.1c0.1,0,0.1-0.1,0.1-0.2c0-0.8,0-1.6-0.1-2.5
				c0-0.1,0-0.2,0-0.4c0,0,0,0,0,0C62,40.5,62,39.9,62,39.3z M68.1,48.1c-0.1,0-0.2,0.1-0.1,0.2c0.1,0.4,0.1,0.4,0.6,0.4
				c0.3,0,0.5,0,0.8,0c0.1,0,0.2-0.1,0.2-0.1c0-0.1,0-0.3,0-0.5c0,0-0.1,0-0.2,0c-0.2,0-0.4,0-0.6,0c0,0,0,0,0,0
				C68.6,48.1,68.3,48.1,68.1,48.1z M62.9,37.7c0-0.1-0.1-0.1-0.1-0.2c0,0-0.1,0.1-0.1,0.1c0,0.4,0,0.7,0,1.1c0,0.1,0,0.2,0,0.3
				c0,0.1-0.1,0.2-0.1,0.3c-0.1,0.1,0.1,0.1,0.1,0.2c0,0.1-0.1,0.2,0,0.3c0,0-0.2,0.1,0,0.1c0.1,0,0.2,0,0.2-0.1c0-0.2,0-0.4,0-0.5
				c0,0,0,0,0,0C62.9,38.7,62.9,38.2,62.9,37.7z M74.5,44C74.5,44,74.5,44,74.5,44C74.6,44.1,74.6,44,74.5,44
				c0.1-0.2,0.2-0.4,0.2-0.6c0,0,0-0.1-0.1-0.1c0,0,0,0.1,0,0.1c0,0-0.1,0-0.1,0c0-0.2,0-0.4-0.1-0.6c0-0.3-0.1-0.5-0.4-0.7
				c0,0-0.1,0-0.1,0c0,0,0,0.1,0,0.1c0.1,0.2,0.1,0.4,0.2,0.6c0,0.1,0,0.1,0.1,0.2c0,0,0.1-0.1,0.1-0.1c0,0,0,0.1,0,0.1
				c0,0.1,0,0.2,0,0.3c0,0,0,0-0.1,0C74.3,43.5,74.4,43.8,74.5,44z M61.7,38.5c0,0.1,0.1,0.1,0.1,0.2c0.1,0,0.1-0.1,0.2-0.1
				c0-0.1,0-0.3,0-0.4c0-0.3,0.1-0.5,0.1-0.8c0-0.1,0-0.3-0.1-0.4c0,0-0.1-0.1-0.1-0.1c0,0-0.1,0.1-0.1,0.1
				c-0.1,0.4-0.1,0.8-0.1,1.3c0,0,0,0,0,0C61.7,38.3,61.7,38.4,61.7,38.5z M63.6,44.5C63.6,44.5,63.6,44.5,63.6,44.5
				C63.6,44.5,63.7,44.5,63.6,44.5c0.1-0.4,0.2-0.7,0.2-1.1c0-0.3,0-0.6,0.1-0.9c0,0,0-0.1,0-0.1c0-0.1-0.1-0.1-0.1-0.2
				c0,0-0.1,0.1-0.1,0.1c0,0.2-0.1,0.5-0.1,0.7c0,0.3,0,0.6-0.1,1C63.5,44.2,63.6,44.3,63.6,44.5z M62.1,44.5c0-0.1,0-0.2-0.1-0.1
				c-0.1,0-0.1,0.1,0,0.2c0.1,0.1,0,0.3,0.1,0.5c0,0.3,0.1,0.5,0.1,0.8c0,0,0,0.1,0.1,0.1c0,0,0.1,0.1,0.1,0.1c0,0,0-0.1,0-0.1
				C62.2,45.4,62.2,45,62.1,44.5z M78.4,43.9c0,0.1,0,0.2,0,0.3c0,0.1,0,0.3,0,0.4c0,0.1,0,0.2,0,0.3c0,0,0,0.1,0,0.1
				c0.1,0,0.2,0,0.2,0c0,0,0-0.1,0-0.1c-0.1-0.6-0.2-1.1-0.2-1.7c0,0,0-0.1-0.1-0.1c0,0,0,0,0,0C78.4,43.5,78.4,43.7,78.4,43.9z
				 M65.5,49.6c0.1,0,0.3-0.1,0.4-0.1c0,0,0-0.1,0-0.1c0-0.1-0.1-0.2-0.1-0.2c-0.1-0.1-0.2-0.2-0.3-0.2c0,0.1-0.1,0.2-0.1,0.3
				c0,0.1,0,0.2-0.1,0.3C65.4,49.6,65.5,49.6,65.5,49.6z M63.4,41.4C63.4,41.5,63.4,41.5,63.4,41.4C63.5,41.5,63.5,41.5,63.4,41.4
				c0.1,0,0.1,0,0.1,0c0,0.1-0.1,0.2-0.1,0.3c0,0,0,0.1,0,0.1c0,0,0.1,0,0.1,0c0,0,0.1-0.1,0.1-0.1c0-0.1,0-0.1,0-0.2
				c0-0.2,0-0.4,0-0.5c0,0,0.1-0.1,0.1-0.1c0-0.1-0.1-0.1-0.1-0.2c0,0-0.1,0.1-0.1,0.1c0,0.2-0.1,0.3-0.1,0.5c0,0,0,0,0,0
				C63.4,41.3,63.4,41.4,63.4,41.4z M74.7,44.6c0-0.1-0.1-0.1-0.1-0.2c0,0.1,0,0.1,0,0.2c0,0.1-0.1,0.1-0.1,0
				c-0.1-0.1-0.1-0.1-0.2-0.2c0,0-0.1,0-0.1-0.1c0,0,0,0.1,0,0.1c0.1,0.1,0.1,0.3,0.2,0.4c0,0.1,0.1,0.1,0.2,0.1
				c0.1,0,0.1-0.1,0.2-0.2c0,0,0-0.1,0-0.2C74.7,44.8,74.7,44.7,74.7,44.6z M74.8,43.7C74.8,43.7,74.8,43.6,74.8,43.7
				C74.8,43.7,74.7,43.7,74.8,43.7c-0.1,0.3-0.1,0.5,0,0.7c0,0,0.1,0,0.1,0.1c0,0.1,0,0.2,0.1,0.3c0-0.1,0.1-0.3,0.1-0.4
				c0,0,0-0.1,0-0.1c0,0,0,0,0,0C75,44.1,74.9,43.9,74.8,43.7z M62.7,41.3C62.7,41.3,62.7,41.3,62.7,41.3
				C62.6,41.3,62.6,41.3,62.7,41.3c0,0.4,0,0.9,0.1,1.3c0,0,0,0.1,0.1,0.1c0,0,0-0.1,0-0.1c0-0.1,0-0.3,0-0.5
				C62.9,41.9,62.9,41.6,62.7,41.3z M74.8,41.3c0,0.1,0.1,0.1,0.1,0.2c0-0.1,0-0.1,0-0.2c0-0.2-0.1-0.4-0.2-0.5c0,0-0.1-0.1-0.1-0.1
				c0,0,0,0.1,0,0.1C74.7,41,74.7,41.1,74.8,41.3z M63.4,45.7C63.4,45.7,63.5,45.7,63.4,45.7c0.1-0.1,0.2-1,0.1-1.1c0,0,0,0,0,0
				c0,0,0,0,0,0.1c0,0.3,0,0.6,0,0.9c0,0,0,0,0,0C63.4,45.6,63.4,45.7,63.4,45.7z M75.3,48.2c0.1,0,0.1-0.1,0.2-0.1
				c-0.1,0-0.1-0.1-0.2-0.1c-0.1,0-0.1,0-0.2,0c0,0-0.1,0.1-0.1,0.1c0,0,0.1,0.1,0.1,0.1C75.2,48.2,75.3,48.2,75.3,48.2z M66,43.3
				c0-0.1,0-0.2,0-0.3c0-0.1,0-0.1,0-0.2c-0.1,0-0.1,0-0.2,0c0,0-0.1,0.1-0.1,0.2C65.9,43.2,65.9,43.3,66,43.3
				C66,43.3,66,43.3,66,43.3z M72.4,48.2C72.5,48.2,72.5,48.2,72.4,48.2C72.5,48.2,72.4,48.1,72.4,48.2c-0.3,0-0.5,0-0.8,0.1
				c0,0-0.1,0-0.1,0c0.1,0,0.1,0,0.1,0C71.9,48.3,72.2,48.2,72.4,48.2z M73.7,43.4c0.1,0.2,0.2,0.5,0.3,0.7c0,0,0,0,0.1,0.1
				c0,0,0-0.1,0-0.1C74,43.9,73.9,43.6,73.7,43.4C73.8,43.4,73.8,43.4,73.7,43.4C73.8,43.4,73.7,43.4,73.7,43.4
				C73.7,43.4,73.7,43.4,73.7,43.4z M62.6,43c0,0.1,0,0.1,0.1,0.2c0-0.1,0-0.2,0.1-0.2c0-0.1,0-0.1,0-0.2c0-0.1,0-0.2-0.1-0.3
				c0,0.1,0,0.2,0,0.4c0,0,0,0,0,0C62.6,42.9,62.6,43,62.6,43z M73.5,38.5c0-0.1,0-0.2,0-0.3c0,0.1-0.1,0.2-0.1,0.3c0,0,0,0.1,0,0.1
				c0,0.1,0,0.2,0.1,0.3C73.5,38.8,73.5,38.7,73.5,38.5C73.5,38.6,73.5,38.6,73.5,38.5C73.5,38.6,73.5,38.5,73.5,38.5z M71.1,38.4
				c0,0,0,0.1,0,0.1c0,0,0.1,0,0.1,0c0,0,0.1,0,0.1-0.1c0,0,0.1-0.1,0.1-0.1c0,0-0.1,0-0.1-0.1C71.2,38.3,71.1,38.3,71.1,38.4z
				 M62.9,40.8c0-0.1-0.1,0-0.1,0.1c0,0.1,0,0.1,0.1,0.2c0,0.1,0,0.1,0,0.2c0,0,0,0.1,0,0.1c0,0,0-0.1,0-0.1c0,0,0-0.1,0-0.1
				c0,0,0,0,0,0C62.9,41,62.9,40.9,62.9,40.8z M64.9,48.9C64.9,48.9,64.8,48.9,64.9,48.9c-0.1,0.1-0.1,0.1-0.1,0.2c0,0,0,0.1,0,0.1
				c0,0,0,0,0.1,0.1c0,0,0-0.1,0-0.1c0,0,0-0.1,0-0.1C64.9,49,64.9,48.9,64.9,48.9z M61.9,46.1c0,0.1,0.1,0.1,0.2,0.1
				c0-0.1,0-0.1-0.1-0.2c0,0-0.1-0.1-0.1-0.1c0,0,0-0.1-0.1-0.1c0,0,0,0.1,0,0.1C61.9,46,61.9,46.1,61.9,46.1z M62.7,43.8
				c0,0,0,0.1,0,0.1C62.7,43.9,62.7,43.8,62.7,43.8c0.1,0,0.1-0.1,0.1-0.1c0-0.1,0-0.2,0-0.2c0,0.1-0.1,0.2-0.1,0.2
				C62.7,43.7,62.7,43.7,62.7,43.8z M75.1,42.6C75.1,42.6,75,42.7,75.1,42.6c0,0.1,0,0.2,0,0.3c0,0,0,0.1,0.1,0.1c0,0,0-0.1,0-0.1
				C75.2,42.8,75.1,42.7,75.1,42.6z M73.5,39.2C73.5,39.2,73.4,39.2,73.5,39.2c-0.1,0.1,0,0.2,0,0.3c0,0,0.1,0,0.1,0
				C73.5,39.5,73.5,39.4,73.5,39.2C73.5,39.3,73.5,39.3,73.5,39.2z M63.1,39.5C63.1,39.4,63.1,39.4,63.1,39.5
				C63.1,39.4,63.1,39.4,63.1,39.5c-0.1,0.1-0.1,0.3-0.1,0.4c0,0,0,0,0,0.1c0,0,0,0,0-0.1c0-0.1,0-0.2,0-0.3
				C63.1,39.6,63.1,39.5,63.1,39.5z M64.9,37.9c0,0,0.1,0.1,0.1,0.1c0,0,0.1-0.1,0.1-0.1c0,0,0-0.1,0-0.1
				C65.1,37.9,65,37.9,64.9,37.9z M73,39.3c0-0.1,0-0.2,0-0.3c0-0.1,0-0.2,0-0.3c0,0.1,0,0.2,0,0.3C72.9,39.1,73,39.2,73,39.3z
				 M65.5,43.5c0.1,0.1,0.1,0.1,0.2,0.2c0,0,0,0,0,0c-0.1-0.1-0.2-0.2-0.2-0.3c0,0,0,0,0,0C65.5,43.4,65.5,43.5,65.5,43.5
				C65.5,43.5,65.5,43.5,65.5,43.5z M63,46.6c0,0-0.1-0.1-0.1-0.1c0,0-0.1,0-0.1,0C62.8,46.5,62.9,46.6,63,46.6
				C62.9,46.6,63,46.6,63,46.6z"/>
			<g>
				<path class="st4" d="M29,45.6C29,45.5,29,45.5,29,45.6L29,45.6z"/>
				<path class="st4" d="M29.9,45.6L29.9,45.6C29.9,45.5,29.9,45.5,29.9,45.6z"/>
				<path class="st4" d="M35.6,25c0,0-0.3-3.4-0.3-3.9c0-0.2-0.1-0.7-0.2-1.1l0.1,0c0,0-0.3-0.6-0.3-1.4c-0.2-2.2,0.3-5.7-0.7-6.7
					c-0.6-0.6-2.6-1.1-2.6-1.1s0,0,0,0c0,0,0,0,0,0c0,0,0,0,0,0c-0.5-0.2-0.9-0.5-0.9-0.5c0-0.1,0-0.7,0-1c0.1-0.1,0.3-0.3,0.4-0.6
					c0.1-0.2,0.1-0.3,0.1-0.5c0,0.1,0,0.1,0.1,0c0,0,0,0,0,0c0,0.2,0,0.3,0.1,0.3c0.1,0,0.1-0.1,0.2-0.3c0-0.2,0-0.3-0.1-0.3
					c0,0,0.1-0.1,0.1-0.1c0-0.1,0.2-0.7,0.1-0.8c0,0,0,0,0-0.1c0,0,0-0.1,0-0.1c0-0.1,0.1-0.2,0.2-0.4c0.1-0.2,0-0.2,0.2-0.5
					c0-0.1,0-0.4,0-0.5c0-0.1,0.2-0.5,0.2-0.7c0-0.1,0-0.1-0.1-0.7c-0.1-0.4-0.5-0.6-0.5-0.7c-0.1-0.2-0.3-0.2-0.5-0.4
					c-0.2-0.2-0.4-0.2-0.7-0.3c-0.2-0.1-0.3,0.1-0.5,0c-0.1,0-0.3-0.2-0.5-0.1c-0.2,0.1-0.3,0.1-0.6,0.1c-0.2,0-0.4,0.1-0.6,0.3
					c-0.2,0.2-0.5,0.2-0.6,0.4c0,0.1-0.4,0.2-0.4,0.5c-0.1,0.3-0.2,0.6-0.2,0.7c0,0.2,0,0.6,0,0.7c0,0.1,0.1,0.4,0.2,0.5
					c0.2,0.3,0.1,0.4,0.2,0.7c0.1,0.3,0.2,0.3,0.2,0.4c0,0,0,0.1,0,0.1c0,0,0,0,0,0.1c0,0.1,0.1,0.7,0.1,0.8c0,0,0,0.1,0.1,0.2
					c0,0.1,0,0.2,0,0.3c0,0.2,0.1,0.3,0.2,0.3c0.1,0,0.1-0.2,0.1-0.3c0,0.2,0.1,0.3,0.1,0.4c0.1,0.3,0.2,0.4,0.4,0.6
					c0,0.3,0,0.9,0,1c0,0-0.4,0.3-0.9,0.5c0,0,0,0,0,0c0,0,0,0,0,0s0,0,0,0c0,0,0,0,0,0c0,0,0,0,0,0c0,0-1.9,0.4-2.6,1.1
					c-0.8,0.8-0.5,4.3-0.7,6.5c-0.1,0.8-0.4,1.8-0.4,1.8l0.1,0c-0.1,0.4-0.2,0.8-0.2,1c0,0.5-0.3,3.9-0.3,3.9h0c0,0,0,1.9,0,2.2
					c0,0.3,1.3,2,1.4,1.8c0.1-0.2,0.2-0.4,0.2-0.4L24.6,28l0.1-1.6L24.4,25h0c0,0,1.1-4.1,1.2-4.3c0,0,0-0.2,0.1-0.4l0,0l0.5-4.4
					l0,0.2l0.1-0.3c0.1,0.7,0.4,3.3,0.4,3.9c-0.1,0.7-0.9,2.9-0.9,2.9l0,0c-0.1,0.2-0.2,0.4-0.2,0.4s0,0,0,0
					c-0.3,0.9-0.7,2.4-0.5,4.6c0,0.2,0.1,1.6,0.2,2.3h0.5c0.4,2.5,0.8,5.5,0.8,5.5s-0.2,2.6-0.1,3.2c0.1,0.6,1.3,6.4,1.3,6.4
					c0,0.4-0.2,0.8-0.4,1.1l0,0l0,0c-0.2,0.2-0.3,0.4-0.3,0.4l0,0c0,0,0,0.1,0,0.2c0,0.2,0,0.6,0.7,0.6c1.1,0.1,1.1-0.1,1.3-0.6
					c0.1-0.3,0.1-1,0.1-1l0-0.2c0,0,0,0,0,0l-0.1-0.8c0,0-0.1-0.6-0.2-1.4c0-1.1,0.1-2.7,0.1-3.8c0.1-1.8-0.3-3.5-0.2-3.9
					c0.1-0.4,0.1-0.6,0.2-0.9c0.1-0.3,0-0.9,0-1.4c0.1-0.4,0.2-1.4,0.3-3.6h0.1v0.3h0.2v-0.3h0.1c0.2,2.2,0.3,3.1,0.3,3.6
					c0.1,0.4,0,1.1,0,1.4c0.1,0.3,0.1,0.4,0.2,0.9c0.1,0.4-0.2,2.1-0.2,3.9c0,1.1,0.1,2.6,0.1,3.8c0,0.8-0.2,1.4-0.2,1.4l-0.1,0.7
					c0,0,0,0,0,0l0,0.2c0,0,0,0.7,0.1,1c0.1,0.5,0.1,0.6,1.3,0.6c0.7,0,0.7-0.4,0.7-0.6c0-0.1,0-0.2,0-0.2l0,0c0,0-0.1-0.2-0.3-0.4
					l0,0L31.6,46c-0.2-0.3-0.4-0.7-0.4-1c0,0,1.2-5.8,1.3-6.4c0.1-0.6-0.1-3.2-0.1-3.2s0.4-3,0.8-5.5h0.5c0.1-0.7,0.2-2.1,0.2-2.3
					c0.3-2-0.2-3.7-0.5-4.6c0,0,0,0,0,0s-0.1-0.2-0.1-0.3c0-0.1-0.1-0.4-0.1-0.4s0,0,0,0c-0.2-0.6-0.8-2-0.8-2.6
					c0-0.7,0.3-3,0.4-3.6l0,0l0-0.1c0,0,0-0.1,0-0.1l0.5,4.6l0,0c0,0.1,0,0.1,0,0.2c0.1,0.3,1.2,4.3,1.2,4.3h0l-0.2,0.8l0,0
					l-0.1,0.6l0.1,1.6l-0.4,0.6c0,0,0.2,0.2,0.2,0.4c0.1,0.2,1.4-1.5,1.4-1.8C35.6,26.9,35.6,25,35.6,25L35.6,25z M31.9,46.6
					L31.9,46.6C31.9,46.5,31.9,46.6,31.9,46.6z"/>
			</g>
			<path class="st5" d="M58.5,22.4l-0.2-2.9l0.6-0.2c0,0-0.5-3-1-3.7c-0.6-0.8-3.7-2.1-3.7-2.1s0,0-0.1,0.1
				c-0.5-0.3-0.9-0.5-0.9-0.5c0-0.1,0-0.4,0-0.8c0.2-0.2,0.3-0.4,0.3-0.4l0.1-0.5c0.1-0.1,0.4-0.4,0.4-0.5c0-0.1,0.1-1-0.1-1
				c-0.1,0-0.2,0-0.2,0.1c0,0,0-0.1,0-0.1c0.1-0.2,0.2-1.1,0.1-1.5c-0.1-0.2-0.1-0.4-0.2-0.6c0.1-0.4,0.1-1.2,0.1-1.2
				c0,0-0.4,0-0.6-0.2c-0.2-0.1-0.2-0.1-0.5-0.1c-0.2,0-0.5,0-0.6-0.1c-0.1,0-0.5,0-0.7,0c-0.2,0.1-0.5,0.1-0.8,0.1
				c-0.3,0-0.2,0.1-0.5,0.2c-0.2,0.1-0.1,0-0.2,0.1c0,0,0.1,0.6,0.2,0.9c-0.1,0.2-0.2,0.3-0.3,0.5c-0.2,0.6-0.1,1.2,0,1.5
				c0,0.1,0,0.1,0,0.2c0,0,0,0,0,0.1c0,0-0.1-0.1-0.2-0.1c-0.1,0-0.1,0.9-0.1,1c0,0.2,0.3,0.5,0.5,0.5l0.1,0.5c0,0,0.1,0.2,0.3,0.4
				c0,0.3,0,0.7,0,0.8c0,0-0.4,0.3-0.9,0.5c0,0-0.1-0.1-0.1-0.1s-3.1,1.3-3.7,2.1c-0.5,0.7-1,3.7-1,3.7l0.5,0.1l-0.2,2.9
				c-0.2,1.3,0.5,6.4,0.5,6.4s-0.4,2.1-0.4,2.5c0,0.3,1,1.5,1.2,1.7c0.1,0.2,0.6-0.4,0.6-0.5c-0.1-0.1-0.5-0.9-0.5-0.9l0.1-1
				c0,0,0.2,0.9,0.2,1c0,0.1,0.5,0.1,0.5,0.1c0-0.1,0-1.7,0-1.9c0-0.1-0.3-1.2-0.3-1.2l0.8-8l0,7.1h0.1l-0.1,20.9l0.7,0c0,0,0,0,0,0
				c-0.1,0-0.1,0.1-0.1,0.1s-0.1,0.3-0.4,0.7c-0.2,0.4-0.3,0.8-0.3,0.8s-0.1,0.6,0.2,0.7c0.4,0.2,0.9,0.2,1.2,0.2
				c0.3,0,0.9,0,1.2-0.2c0.2-0.1,0.2-0.7,0.2-0.7s-0.1-0.4-0.3-0.8c-0.2-0.4-0.2-0.7-0.2-0.7s0,0-0.1,0c0,0,0,0,0,0l0.6,0l1.6-17.5
				l0,0l0,0l1.6,17.5l0.6,0c0,0,0,0,0,0c-0.1,0-0.1,0-0.1,0s0,0.3-0.2,0.7c-0.2,0.4-0.3,0.8-0.3,0.8s-0.1,0.6,0.2,0.7
				c0.4,0.2,0.9,0.2,1.2,0.2c0.3,0,0.9,0,1.2-0.2c0.2-0.1,0.2-0.7,0.2-0.7s-0.1-0.4-0.3-0.8c-0.2-0.4-0.4-0.7-0.4-0.7s0,0-0.1-0.1
				c0,0,0,0,0,0l0.7,0l0,0l0,0l0-0.5l-0.1-20.3H56l0-6.2l0.7,7.1c0,0-0.3,1-0.3,1.2c0,0.1,0,1.8,0,1.9c0,0.1,0.4,0.1,0.5-0.1
				c0-0.1,0.2-1,0.2-1l0.1,1c0,0-0.4,0.8-0.5,0.9c0,0.1,0.5,0.7,0.6,0.5c0.1-0.2,1.1-1.5,1.2-1.7c0.1-0.4-0.4-2.5-0.4-2.5
				S58.7,23.8,58.5,22.4z"/>
			<path class="st6" d="M44.2,50.2C44.2,50.2,44.2,50.2,44.2,50.2c0,0,0,0,0-0.1c0-0.1-0.1-0.2-0.7-0.6c-0.1-0.1-0.3-0.2-0.6-0.4
				c0,0,0,0,0,0c-0.3-0.3-0.4-0.5-0.5-0.7c0,0,0.4-5.9,0.4-6.5c0-0.3-0.1-0.8-0.2-1.4h0l0,0c-0.2-0.8-0.3-1.7-0.3-1.7
				c0-0.1,0-3.7,0-6.2c0.3-0.2,1.4-1.5,1.4-1.8c0-0.3,0-1.9,0-2.2h0l0,0c0,0-0.3-3.4-0.3-3.9c0-0.3-0.2-1-0.4-1.6
				c-0.1-0.3-0.2-0.6-0.2-0.7c0-0.2-0.1-1.6-0.1-2.7c0-0.3,0-0.6,0-0.9c0-0.6,0-1.6-0.1-2.1c0-0.9-0.5-1.4-0.9-1.7l0,0
				c-0.3-0.2-0.6-0.3-1-0.4c-0.1,0-0.2,0-0.3-0.1c-0.2,0-0.4-0.1-0.7-0.3c0.2-1.2,0.4-3,0.4-4.4c-0.1-1.9-1.5-2.6-2.3-2.7
				c-0.5-0.1-1.6,0.1-2.2,0.6c-0.5,0.5-0.9,1.3-1,3c-0.1,1,0.1,2.4,0.4,3.5c-0.2,0.1-0.5,0.2-0.6,0.2c-0.1,0-0.2,0-0.2,0.1
				c-0.3,0.1-0.6,0.1-0.8,0.3c0,0,0,0,0,0l0,0c0,0-0.1,0-0.1,0l-0.1,0c0,0,0,0,0,0c-0.4,0.2-0.9,0.7-0.9,1.7c0,0.5-0.1,1.5-0.1,2.1
				c0,0.2,0,0.5,0,0.9c0,1.1,0,2.5-0.1,2.7c0,0.1-0.1,0.4-0.2,0.7c-0.2,0.6-0.4,1.3-0.4,1.6c0,0.5-0.3,3.8-0.3,3.9l0,0h0
				c0,0.2,0,1.9,0,2.2c0,0.3,1.3,2,1.4,1.8c0.1-0.2,0.2-0.4,0.2-0.4l-0.4-0.6l0.1-1.6l-0.1-0.6l0,0l-0.2-0.8h0l0,0
				c0,0,1.1-4.1,1.2-4.3c0-0.1,0.1-1.1,0.2-2.1l0.3-2.3c0,0.1,0.1,0.2,0.2,0.2c0.1,0.7,0.3,1.4,0.3,2.1l0,0.1
				c0.1,0.9,0.1,1.2-0.3,2.3c-0.5,1-0.7,1.5-0.7,1.5l0,0l0,0c-0.2,0.5-0.7,2.8-0.5,4.1c0.1,0.8,1.5,8.4,1.6,8.7
				c0,0.1-0.1,0.8-0.1,1.6l0,0h0c0,0.7,0,1.3,0,1.6c0.1,0.6,1.3,6.4,1.3,6.4c0,0,0,0,0,0.1c0,0-0.2,0.4-0.4,0.7
				c-0.2,0.3-0.4,0.6-0.4,0.6s0,0.5,0.1,0.6c0.3,0.2,0.7,0.2,1,0.2c0.2,0,0.7,0,1-0.2c0.2-0.1,0.1-0.6,0.1-0.6s0-0.5-0.1-0.9
				c-0.1-0.3-0.1-0.6-0.1-0.6s-0.1-0.6-0.2-1.4c0-1.1,0.1-2.7,0.1-3.8c0-1,0-1.9-0.1-2.6h3.2c0,0.7,0.1,1.7,0.3,2.8
				c0.2,1,0.5,2.6,0.7,3.7c0.1,0.8,0,1.5,0,1.5s0,0.2-0.1,0.4c-0.1,0-0.1,0-0.1,0c0,0.2-0.1,0.6-0.1,0.6s0,0,0,0.2
				c0,0.2-0.2,0.2,0.2,0.3c0.4,0.1,0.4,0.2,1,0.5c0.5,0.3,1.6,0.3,2,0.2C44.3,50.7,44.3,50.3,44.2,50.2z M42.4,31l0,0.5l0,0.1
				C42.4,31.4,42.4,31.2,42.4,31z M42.4,29.4L42.4,29.4l-0.1,0.2c-0.1-1.3-0.7-3-1-3.5c-0.1-0.1-0.3-0.6-0.7-1.5
				c-0.2-0.3-0.3-0.6-0.3-0.8l0,0h0c-0.1-0.5-0.1-0.8,0-1.4l0-0.1c0.1-0.7,0.2-1.4,0.3-2.1c0.1-0.1,0.2-0.2,0.2-0.4l0.1,1.1
				c0,0.4,0.1,0.8,0.1,1.2c0.1,1.1,0.2,2.1,0.2,2.2c0.1,0.3,1.2,4.3,1.2,4.3l0,0h0L42.4,29.4z"/>
			<path class="st7" d="M14.9,25 M2.2,29.7c0-0.1,0.1-0.1,0.1-0.1s0.1,0.1,0.1,0.2L2.2,29.7z M16.6,16.4c0,0,0,10.5-0.3,11.3
				s-1.3,1.5-1.3,1.5l-0.2,0.3L15,48.8l-0.5,0c0,0,0,0,0,0c0.2,0.4,0.3,0.8,0.3,0.8s0.1,0.6-0.2,0.7c-0.4,0.2-0.9,0.2-1.2,0.2
				c-0.3,0-0.9,0-1.2-0.2c-0.2-0.1-0.2-0.7-0.2-0.7s0.1-0.4,0.3-0.8c0,0,0,0,0,0l-0.6,0l-1.3-18.2l0,0l0,0L9.2,48.8l-0.6,0
				c0,0,0,0,0,0c0.2,0.4,0.3,0.8,0.3,0.8s0.1,0.6-0.2,0.7c-0.4,0.2-0.9,0.2-1.2,0.2c-0.3,0-0.9,0-1.2-0.2c-0.2-0.1-0.2-0.7-0.2-0.7
				s0.1-0.4,0.3-0.8c0,0,0,0,0,0l-0.8,0l0.6-21.3l-0.2,0l-0.1-8.2l-0.7,3.6l0-0.2c-0.1,0.4-0.1,0.7-0.1,0.8
				c-0.1,0.7-2.3,4.8-2.3,4.8l-0.3,0c0,0,0,0,0,0l0.3,0c0,0,0,0.1-0.1,0.1c0,0.1-0.1,0.1-0.1,0.1l0-0.1c0.2,0.4,0.4,1.2,0.4,1.3
				c0,0.2-0.2,0.8-0.3,0.9c0,0.1-0.1,0-0.2,0c-0.1,0.1-0.2,0.2-0.3,0.2l-0.4-0.1c0,0.3,0.1,0.6,0,0.7c0,0,0,0.1-0.1,0.1v18.4
				c0,0,0,0,0,0.1c0,0,0,0,0,0v1l0,0c0,0,0,0,0,0v0h0c0,0.1-0.2,0.1-0.4,0.1s-0.4-0.1-0.4-0.1h0v0c0,0,0,0,0,0l0,0v-1c0,0,0,0,0,0
				c0,0,0-0.1,0.1-0.1V31.4c-0.3-0.2-0.8-0.6-0.8-0.6L0.1,30C0.1,30,0,29.9,0,29.7l0-0.1l0,0c0,0,0,0,0-0.1c0-0.2,0.1-0.3,0.2-0.4
				c0.2-0.4,0.5-0.9,0.7-1.1l0,0l0-0.1c0,0,1.7-5.1,1.7-5.2c0.2-1.5,0.8-7,1.7-7.8C5.2,14.1,8,12.7,8,12.7l0.6-0.6c0,0,0,0,0-0.1
				c-0.1-0.2-0.1-0.6,0-1c0-0.1,0-0.4,0-0.8C8.4,10.1,8.2,10,8.2,9.9c0-0.1-0.1-0.9,0.1-0.9c0.1,0,0.1,0,0.2,0.1c0-0.1,0-0.1,0-0.2
				L8.4,8.8l0-0.1l0.1,0C8.3,8.4,8,7.5,9,6.7C9.3,6.3,9.8,6.1,10.1,6c0.3,0,0.4,0,0.7,0c0.4,0,0.8,0.3,1.1,0.7c1,0.8,0.7,1.8,0.6,2
				l0.1,0l0,0.1l-0.2,0.1c0,0,0,0.1,0,0.2c0,0,0.1-0.1,0.2-0.1c0.1,0,0.1,0.8,0.1,0.9c0,0.1-0.2,0.3-0.3,0.4c0,0.1,0,0.3,0,0.4
				c0.1,0.5,0.1,1,0.1,1.1c0,0.1-0.1,0.2-0.1,0.4l0.4,0.5c0,0,0,0,0,0c0.1,0,2.8,1.2,3.4,2L16.6,16.4z"/>
			<path class="st8" d="M18.4,27.8l0.2-0.2c0,0.1,0.4,0.7,0.6,1.1c0,0.5,0,0.9,0,1.4c0,0.1,0,0.2,0,0.3c0,0,0,0,0,0.1
				c0.1,0.8,1.1,11.2,1.2,11.9c0.1,0.5,0.8,4.1,1.1,5.6h0c0.1,0.4,0.1,0.6,0.2,0.7c0,0-0.2,0.4-0.4,0.7c-0.2,0.3-0.4,0.6-0.4,0.6
				s0,0.6,0.1,0.7c0.3,0.2,0.7,0.2,1,0.2c0.2,0,0.7,0,1-0.2c0.2-0.1,0.1-0.7,0.1-0.7s0-0.5-0.1-0.9c-0.1-0.3-0.1-0.6-0.1-0.6
				s0,0,0,0c0-0.1-0.1-0.3-0.1-0.5c0,0,0-0.1,0-0.1c0,0,0-0.1,0-0.1c0,0,0,0,0,0c0-0.1,0-0.3,0-0.4c0,0,0,0,0-0.1c0,0,0-0.1,0-0.1
				c0-0.7,0-1.5,0.1-2.3c0-0.5,0.1-1.1,0.1-1.5c0-0.8,0.1-2.4,0.1-4.1H24c0.1,1.7,0.1,3.3,0.1,4.1c0,1.1,0.2,2.6,0.1,3.8
				c0,0.1,0,0.2,0,0.2c0,0,0,0,0,0c0,0.1,0,0.1,0,0.2c0,0,0,0,0,0c0,0.1,0,0.1,0,0.2c0,0,0,0,0,0.1c0,0,0,0.1,0,0.1
				c0,0.3-0.1,0.5-0.1,0.6c0,0,0,0,0,0s-0.1,0.2-0.1,0.6c-0.1,0.4-0.1,0.9-0.1,0.9s0,0.6,0.1,0.7c0.3,0.2,0.7,0.2,1,0.2
				c0.2,0,0.7,0,1-0.2c0.2-0.1,0.1-0.7,0.1-0.7s-0.2-0.3-0.4-0.6c-0.2-0.3-0.3-0.6-0.3-0.7c0-0.1,0.1-0.3,0.2-0.7h0
				c0.3-1.6,1.1-5.1,1.1-5.6c0.1-0.6,1.1-11.1,1.2-11.9c0,0,0,0,0,0c0-0.3,0.1-0.5,0.1-0.9c0-1.6-0.4-2.9-0.7-3.7h0L27,20.6l0.1,0.6
				l0,0c0,0.2,0,0.3,0.1,0.5c0.1,1.3,0.2,2.5,0.2,2.7c0,0.4,1,4.4,1,4.4l0.3,0c0,0,0,0,0,0l-0.2,0.8l0,0l-0.1,0.6l0.1,1.6L28,32.4
				c0,0,0.2,0.3,0.2,0.4c0.1,0.2,1.4-1.5,1.4-1.8c0-0.3,0-2.2,0-2.2s0,0,0,0l0.2,0c0,0-0.3-3.2-0.4-3.7c-0.2-1.6-0.4-1.9-0.5-2.6
				c0-0.8-0.1-1.9-0.1-3c0-0.6,0-2.2-0.3-3.2c-0.1-0.4-0.1-0.6-0.2-0.7c-0.3-0.3-0.5-0.4-0.7-0.5l0,0l0,0C27.4,15,27.2,15,27.2,15
				l0,0c0,0,0,0-0.1,0.1C27,15,27,15,26.9,15c0.2-0.3,0.1-0.5,0-0.8c-0.1-0.4,0-0.4,0.1-0.7c0.1-0.3-0.3-0.4-0.3-0.7
				c0-0.3,0.4-0.6,0.3-1c-0.1-0.4-0.3-0.4-0.5-0.7c-0.2-0.3,0-1.1-0.2-1.7c-0.2-0.6-1.5-1.9-2.4-1.9c-0.4,0-1,0.3-1,0.3
				s-0.2,0-0.5,0.1c-0.7,0.2-1.1,1.4-1.2,2.2c-0.1,0.8-0.2,1-0.5,1.2c-0.3,0.2,0,1,0,1.2c0,0.2-0.1,0.7-0.1,0.9
				c0,0.1,0.1,0.2,0.1,0.3c-0.1,0.6-0.4,0.5-0.3,0.8c0,0.1,0,0.2,0.1,0.3c-0.2,0.1-0.4,0.1-0.5,0.2c0,0,0,0,0,0l0,0
				c0,0-0.2,0-0.4,0.1l0,0l0,0c-0.3,0.1-0.6,0.3-0.9,0.6c-0.1,0.1-0.2,0.5-0.4,1.1c0,0.1-0.1,0.3-0.1,0.4c-0.4,1.7-1,4.4-1.3,5.8
				C16.5,24.1,18.4,27.8,18.4,27.8z M21.7,48.8C21.7,48.8,21.7,48.8,21.7,48.8C21.7,48.8,21.7,48.8,21.7,48.8
				C21.7,48.8,21.7,48.8,21.7,48.8z M19.5,26.9L19.5,26.9C19.6,26.9,19.6,26.9,19.5,26.9C19.6,26.9,19.6,26.9,19.5,26.9
				C19.5,26.9,19.5,26.9,19.5,26.9L19.5,26.9C19.5,26.9,19.5,26.9,19.5,26.9z M18.6,23.4l1.2-4l0,4.4l0,1.3c0,0.5-0.1,0.8-0.1,0.8
				l0.1,0l0,0.1h0h0.1c-0.1,0.2-0.2,0.4-0.2,0.6c0,0,0,0.1,0,0.1L18.6,23.4z"/>
			<g>
				<path class="st8" d="M36,36.1c0-0.6,0.3-2,0.2-2.1c-0.7-0.3-1.3-0.6-1.4-0.7c-0.1,0-0.6,0-1,0c-0.3,0-0.9,0-1,0
					c-0.1,0-0.9,0.1-1.5,0.4c-0.1,0,0.3,1.7,0.3,2.3c0,0.7-0.1,4.4-0.1,4.4s0.9,0.3,2.3,0.3l0,0h0h0l0,0c1.3,0,2.3-0.3,2.3-0.3
					S35.9,36.7,36,36.1z"/>
				<path class="st8" d="M31.4,50.5c0,0-0.1-0.2,0.1-0.5c0.1-0.3,0.1-0.8,0.1-0.8l0.1-0.3c0,0-0.6-2.1-0.6-2.4c0-0.3,0.2-1,0.2-1
					s0-2.8,0-3.1c0-0.2,0.3-2.2,0.3-2.2s0.7,0.1,1.4,0.2c0.7,0.1,1,0.1,1,0.1l-0.1,2.4c0,0-0.4,0.8-0.5,0.8c0,0,0,1.1-0.1,1.4
					c-0.1,0.2-0.4,0.8-0.4,0.9c0,0.2-0.2,1.6-0.2,1.9c0,0.3,0.2,0.8,0.2,1c0,0.2-0.1,0.5,0,0.6c0,0.1,0.2,0.4,0.3,0.5
					c0,0.1,0.1,0.4,0,0.4C33.1,50.7,31.6,50.8,31.4,50.5z"/>
				<path class="st8" d="M36.2,50.5c0,0,0.1-0.2-0.1-0.5C36,49.8,36,49.3,36,49.3L36,49c0,0,0.6-2.1,0.6-2.4c0-0.3-0.2-1-0.2-1
					s0-2.8,0-3.1c0-0.2-0.3-2.2-0.3-2.2s-0.7,0.1-1.4,0.2c-0.7,0.1-1,0.1-1,0.1l0.1,2.4c0,0,0.4,0.8,0.5,0.8c0,0,0,1.1,0.1,1.4
					c0.1,0.2,0.4,0.8,0.4,0.9c0,0.2,0.2,1.6,0.2,1.9c0,0.3-0.2,0.8-0.2,1c0,0.2,0.1,0.5,0,0.6c0,0.1-0.2,0.4-0.3,0.5
					c0,0.1-0.1,0.4,0,0.4C34.5,50.7,36.1,50.8,36.2,50.5z"/>
				<path class="st8" d="M32.8,49.7l-1.2,0c0,0,0,0.2-0.1,0.3c0,0.1-0.1,0.2-0.1,0.2s0.3,0.1,0.9,0.1c0.6,0,0.8-0.1,0.8-0.1
					L32.8,49.7z"/>
				<path class="st8" d="M34.8,49.7l1.2,0c0,0,0,0.2,0.1,0.3c0,0.1,0.1,0.2,0.1,0.2s-0.3,0.1-0.9,0.1c-0.6,0-0.8-0.1-0.8-0.1
					L34.8,49.7z"/>
				<path class="st8" d="M37.7,40.5c0,0,0.1,1.1,0.1,1.2c0,0.1-0.4,0.7-0.4,0.7c0,0.1-1,0.2-1,0.1c0-0.1,0.1-0.4,0.1-0.4l0.4-0.2
					l0-0.6l-0.2,0.2l0,0.4l-0.3,0.1c0,0-0.1-0.9-0.1-0.9c0-0.1,0.4-0.7,0.4-0.7L37.7,40.5z"/>
				<g>
					<path class="st8" d="M31.5,49.6c0.1-0.3,0-0.6,0-0.6c0,0,0.4-0.1,0.8-0.1c0.4,0,0.6,0,0.6,0.1c0.1,0-0.1,0.5,0.1,0.8
						c0.1,0.3,0.3,0.5,0.3,0.5c-0.1,0.4-0.8,0.3-1,0.3c-0.1,0-0.9,0.1-1-0.3C31.3,50.2,31.4,50,31.5,49.6z"/>
					<path class="st8" d="M31.3,50.2c0,0,0.1,0.2,0.3,0.2c0.1,0,0.3,0,0.4,0c0,0,0.1,0,0.2,0c0.1,0,0.2,0,0.2,0c0.1,0,0.3,0,0.4,0
						c0.2-0.1,0.3-0.2,0.3-0.2s0,0.5-0.1,0.6C32.9,51,32.5,51,32.3,51c-0.2,0-0.6,0-0.8-0.2C31.3,50.7,31.3,50.2,31.3,50.2z"/>
				</g>
				<polyline class="st8" points="32.7,49.5 31.7,49.7 32.7,49.8 31.7,50 32.7,50 31.7,49.9 32.7,49.6 31.8,49.5 				"/>
				<g>
					<g>
						<path class="st8" d="M36.1,49.6c-0.1-0.3,0-0.6,0-0.6c0,0-0.4-0.1-0.8-0.1c-0.4,0-0.6,0-0.6,0.1c-0.1,0,0.1,0.5-0.1,0.8
							c-0.1,0.3-0.3,0.5-0.3,0.5c0.1,0.4,0.8,0.3,1,0.3c0.1,0,0.9,0.1,1-0.3C36.3,50.2,36.2,50,36.1,49.6z"/>
						<path class="st8" d="M36.3,50.2c0,0-0.1,0.2-0.3,0.2c-0.1,0-0.3,0-0.4,0c0,0-0.1,0-0.2,0c-0.1,0-0.2,0-0.2,0
							c-0.1,0-0.3,0-0.4,0c-0.2-0.1-0.3-0.2-0.3-0.2s0,0.5,0.1,0.6c0.2,0.2,0.6,0.2,0.8,0.2c0.2,0,0.6,0,0.8-0.2
							C36.3,50.7,36.3,50.2,36.3,50.2z"/>
					</g>
					<polyline class="st8" points="34.9,49.5 35.9,49.7 34.9,49.8 35.9,50 34.9,50 35.9,49.9 34.9,49.6 35.9,49.5 					"/>
				</g>
				<rect x="27.8" y="31.3" class="st8" width="0.9" height="0.8"/>
				<path class="st8" d="M27.9,34c0,0-0.3-1-0.3-1.2c0-0.1,0.2-0.7,0.2-0.8c0-0.1,1-0.2,1-0.1c0,0.1-0.1,0.2-0.1,0.2l-0.4,0.3
					l0.1,0.6l0.1-0.3l-0.1-0.4l0.3-0.2c0,0,0.2,0.8,0.2,0.8c0,0.1-0.2,0.9-0.2,0.9L27.9,34z"/>
				<path class="st8" d="M36.1,39.7c0,0-0.8,0.8-1.4,0.9c-0.4,0.1-0.7,0.1-0.9,0.1c-0.2,0-0.5,0-0.9-0.1c-0.6-0.1-1.4-0.9-1.4-0.9
					l-0.1,1.5c0,0,0.8,0.2,1.1,0.9c0.3,0.8,0.9,1.3,0.9,1.3c0.1,0,0.5,0,0.6,0c0,0,0.6-0.5,0.9-1.3c0.3-0.7,1.1-0.9,1.1-0.9
					L36.1,39.7z"/>
				<path class="st8" d="M31.6,39.7c0,0,0.6,0.5,0.8,0.7c0.3,0.2,0.5,0.2,0.5,0.2s-0.4,0.7-0.5,0.9c-0.1,0.2-0.1,0.2-0.1,0.2
					s-0.4-0.4-0.7-0.4c-0.3-0.1-0.3-0.1-0.3-0.1L31.6,39.7z"/>
				<path class="st8" d="M36,39.7c0,0-0.6,0.5-0.8,0.7c-0.3,0.2-0.5,0.2-0.5,0.2s0.4,0.7,0.5,0.9c0.1,0.2,0.1,0.2,0.1,0.2
					s0.4-0.4,0.7-0.4c0.3-0.1,0.3-0.1,0.3-0.1L36,39.7z"/>
				<path class="st8" d="M33.9,39.8c0,0.1-0.1,0.2-0.1,0.2c-0.1,0-0.1-0.1-0.1-0.2s0.1-0.2,0.1-0.2C33.9,39.6,33.9,39.7,33.9,39.8z"
					/>
				<path class="st8" d="M27.8,32.6l0.1-0.7c0,0,0.6,0,0.6,0.1c0,0.1,0.1,0.4-0.1,0.5C28.2,32.8,27.8,32.8,27.8,32.6z"/>
				<path class="st8" d="M29,33.2c0,0,0.1-0.3,0.2-0.5c0.1-0.1-0.1-0.5-0.1-0.5c-0.2,0.1-0.1,0.3-0.1,0.4c0,0.1-0.3,0.4-0.3,0.5
					C28.7,33.3,29,33.2,29,33.2z"/>
				<g>
					<path class="st8" d="M36.4,41.7c-0.1-0.5-0.2-1.9-0.2-1.9h-4.6c0,0-0.1,1.4-0.2,1.9c-0.1,0.5-0.5,2.7-0.2,5.1
						c0.2,1.6,0.3,2.7,0.3,2.7l1.8-0.1c0,0-0.1-1.9,0.1-2.9c0.1-0.6,0.6-2.3,0.6-2.4c0,0.1,0.5,1.9,0.6,2.4c0.2,1,0.1,2.9,0.1,2.9
						l1.8,0.1c0,0,0-1,0.3-2.7C36.9,44.4,36.4,42.3,36.4,41.7z"/>
					<polygon class="st8" points="32.8,40.6 32.6,40.6 32.6,39.9 32.9,39.9 					"/>
					<polygon class="st8" points="31.3,48.6 33,48.4 33.1,49.4 31.3,49.5 					"/>
					<path class="st8" d="M31.3,41.6c0,0,0.5,0,0.7-0.4c0.2-0.4,0.2-0.6,0.2-0.6l-0.8-0.1L31.3,41.6z"/>
					<path class="st8" d="M36.1,39.9c0,0-0.6,0-1.4,0c-0.7,0-0.9,0-0.9,0v0c0,0,0,0,0,0h0v0c0,0-0.2,0-0.9,0c-0.8,0-1.4,0-1.4,0
						l-0.1,0.6c0,0,0.3,0,0.9,0.1c0.6,0.1,1.4,0,1.5,0c0,0,0.8,0,1.5,0c0.7-0.1,0.9-0.1,0.9-0.1L36.1,39.9z"/>
					<polygon class="st8" points="36.3,48.6 34.6,48.4 34.5,49.4 36.3,49.5 					"/>
					<path class="st8" d="M36.3,41.6c0,0-0.5,0-0.7-0.4c-0.2-0.4-0.2-0.6-0.2-0.6l0.8-0.1L36.3,41.6z"/>
					<polygon class="st8" points="32.6,40.6 32.7,40 32.8,40 32.7,40.6 					"/>
					<line class="st8" x1="33.8" y1="44.2" x2="33.8" y2="40.6"/>
					<line class="st8" x1="33.9" y1="44.2" x2="33.9" y2="40.6"/>
					<path class="st8" d="M33.8,42.6c0,0,0.5,0.1,0.6-0.5c0.1-0.6,0.1-1.4,0.1-1.4"/>
					<path class="st8" d="M33.8,42.8c0,0,0.7,0.1,0.7-0.5c0.1-0.6,0.1-1.6,0.1-1.6"/>
					<path class="st8" d="M31.3,41.7c0,0,0.4,0,0.7-0.3c0.3-0.3,0.5-0.8,0.5-0.8"/>
					<path class="st8" d="M36.4,41.7c0,0-0.3,0-0.6-0.3c-0.3-0.2-0.4-0.8-0.4-0.8"/>
					<polygon class="st8" points="34.8,40.6 35.1,40.6 35,39.9 34.7,39.9 					"/>
					<polygon class="st8" points="35,40.6 34.9,40 34.8,40 34.9,40.6 					"/>
				</g>
				<path class="st8" d="M34.2,40.2c0,0.1-0.1,0.2-0.2,0.2c-0.1,0-0.2-0.1-0.2-0.2c0-0.1,0.1-0.2,0.2-0.2
					C34.2,40.1,34.2,40.1,34.2,40.2z"/>
				<path class="st8" d="M29.7,35.8c-0.2,0.1-0.9-1.8-0.9-1.8L27.9,34c0,0,0.3,2.2,1,3.1c0.4,0.5,1.6,0.2,2.5-1.4
					c0.4-0.8,0.9-2,0.9-2s-0.8-0.1-1.2,0.1C30.5,34.1,29.7,35.8,29.7,35.8z"/>
				<path class="st8" d="M37.5,37.5c0,0.4,0.3,0.9,0.3,1.7c0,0.7-0.1,1.3-0.1,1.3l-0.8-0.1l-0.6-2.2c0,0-0.2-1-0.3-2
					c-0.1-0.9,0.2-2.3,0.2-2.3s0.5,0.2,0.7,0.5C37.4,35.4,37.5,37.5,37.5,37.5z"/>
				<path class="st8" d="M34.9,33.5c0,0-0.5,0.6-1.1,0.6c-0.6,0-1.1-0.6-1.1-0.6v-0.8h2.2V33.5z"/>
				<path class="st8" d="M32.2,30.8c0,0-0.1-0.1-0.2-0.1c-0.1,0-0.1,0.7-0.1,0.8c0,0.2,0.5,0.5,0.5,0.5L32.2,30.8z"/>
				<path class="st8" d="M32.2,31c0,0-0.1-0.1-0.2-0.1c-0.1,0,0,0.4,0,0.5c0,0.1,0.3,0.3,0.3,0.3L32.2,31z"/>
				<path class="st8" d="M35.4,30.8c0,0,0.1-0.1,0.2-0.1c0.1,0,0.1,0.7,0.1,0.8c0,0.2-0.5,0.5-0.5,0.5L35.4,30.8z"/>
				<path class="st8" d="M35.4,31c0,0,0.1-0.1,0.2-0.1c0.1,0,0,0.4,0,0.5c0,0.1-0.3,0.3-0.3,0.3L35.4,31z"/>
				<path class="st8" d="M34.2,28.6c-0.3,0-0.4,0-0.7,0c-0.7,0-1.5,0.8-1.4,1.7c0,0.3,0.4,2,0.5,2.1c0.1,0.3,0.5,0.7,0.7,0.8
					c0.1,0.1,0.7,0.1,0.7,0.1s0.5,0,0.7-0.1c0.1-0.1,0.6-0.5,0.7-0.8c0-0.1,0.4-1.8,0.5-2.1C35.7,29.4,34.9,28.7,34.2,28.6z"/>
				<g>
					<path class="st8" d="M34.9,31.3c0,0-0.1-0.1-0.2-0.2c-0.1-0.1-0.4-0.1-0.5,0c-0.2,0.1-0.2,0.2-0.2,0.2s0.2-0.2,0.4-0.2
						C34.7,31.1,34.9,31.2,34.9,31.3z"/>
					<path class="st8" d="M34.9,31.3c0,0-0.2-0.1-0.2-0.2c-0.1,0-0.2,0-0.3,0c-0.1,0.1-0.2,0.1-0.2,0.1s0.1,0.1,0.3,0.1
						C34.7,31.4,34.8,31.4,34.9,31.3z"/>
					<g>
						<path class="st8" d="M34.3,31.3c0,0.1,0.1,0.2,0.2,0.2c0.1,0,0.2-0.1,0.2-0.2c0-0.1-0.1-0.2-0.2-0.2
							C34.4,31.1,34.3,31.2,34.3,31.3z"/>
						<path class="st8" d="M34.4,31.3c0,0.1,0.1,0.1,0.1,0.1c0.1,0,0.1-0.1,0.1-0.1c0-0.1-0.1-0.1-0.1-0.1
							C34.4,31.2,34.4,31.2,34.4,31.3z"/>
					</g>
					<path class="st8" d="M34.9,31.3c0,0-0.1-0.1-0.2-0.2c-0.1-0.1-0.4-0.1-0.5,0c-0.2,0.1-0.2,0.2-0.2,0.2s0.2-0.2,0.4-0.2
						C34.7,31.1,34.9,31.3,34.9,31.3z"/>
					<path class="st8" d="M35,31.2c0,0-0.1-0.1-0.4-0.1c-0.2,0-0.4,0.2-0.4,0.2s0.3-0.2,0.5-0.1C34.7,31.2,34.9,31.3,35,31.2
						L35,31.2z"/>
					<path class="st8" d="M34.1,31.3c0,0,0.1,0.2,0.2,0.2c0.1,0,0.3,0,0.4,0c0.1-0.1,0.2-0.2,0.2-0.2s-0.2,0.1-0.3,0.1
						C34.3,31.5,34.2,31.3,34.1,31.3z"/>
					<path class="st8" d="M34.9,31.3c0,0-0.2,0.1-0.3,0.1c-0.2,0-0.4-0.1-0.4-0.1s0.1,0.1,0.3,0.2C34.6,31.5,34.8,31.5,34.9,31.3z"
						/>
				</g>
				<g>
					<path class="st8" d="M32.7,31.3c0,0,0.1-0.1,0.2-0.2c0.1-0.1,0.4-0.1,0.5,0c0.2,0.1,0.2,0.2,0.2,0.2s-0.2-0.2-0.4-0.2
						C33,31.1,32.8,31.2,32.7,31.3z"/>
					<path class="st8" d="M32.8,31.3c0,0,0.2-0.1,0.2-0.2c0.1,0,0.2,0,0.3,0c0.1,0.1,0.2,0.1,0.2,0.1s-0.1,0.1-0.3,0.1
						C33,31.4,32.9,31.4,32.8,31.3z"/>
					<g>
						<path class="st8" d="M33.4,31.3c0,0.1-0.1,0.2-0.2,0.2c-0.1,0-0.2-0.1-0.2-0.2c0-0.1,0.1-0.2,0.2-0.2
							C33.3,31.1,33.4,31.2,33.4,31.3z"/>
						<path class="st8" d="M33.3,31.3c0,0.1-0.1,0.1-0.1,0.1c-0.1,0-0.1-0.1-0.1-0.1c0-0.1,0.1-0.1,0.1-0.1
							C33.2,31.2,33.3,31.2,33.3,31.3z"/>
					</g>
					<path class="st8" d="M32.7,31.3c0,0,0.1-0.1,0.2-0.2c0.1-0.1,0.4-0.1,0.5,0c0.2,0.1,0.2,0.2,0.2,0.2s-0.2-0.2-0.4-0.2
						C33,31.1,32.8,31.3,32.7,31.3z"/>
					<path class="st8" d="M32.7,31.2c0,0,0.1-0.1,0.4-0.1c0.2,0,0.4,0.2,0.4,0.2s-0.3-0.2-0.5-0.1C33,31.2,32.8,31.3,32.7,31.2
						L32.7,31.2z"/>
					<path class="st8" d="M33.5,31.3c0,0-0.1,0.2-0.2,0.2c-0.1,0-0.3,0-0.4,0c-0.1-0.1-0.2-0.2-0.2-0.2s0.2,0.1,0.3,0.1
						C33.3,31.5,33.5,31.3,33.5,31.3z"/>
					<path class="st8" d="M32.8,31.3c0,0,0.2,0.1,0.3,0.1c0.2,0,0.4-0.1,0.4-0.1s-0.1,0.1-0.3,0.2C33.1,31.5,32.9,31.5,32.8,31.3z"
						/>
				</g>
				<g>
					<path class="st8" d="M33.2,32.4c0,0,0.4,0,0.6,0c0.2,0,0.6-0.1,0.6-0.1s-0.2,0.2-0.6,0.2C33.6,32.6,33.3,32.4,33.2,32.4z"/>
					<g>
						<path class="st8" d="M33.2,32.4c0,0,0.3,0,0.3,0c0.1,0,0.2,0,0.3,0c0,0,0,0.1,0,0.1S33.5,32.5,33.2,32.4z"/>
						<path class="st8" d="M34.4,32.4c0,0-0.3,0-0.3,0c-0.1,0-0.2,0-0.3,0c0,0,0,0.1,0,0.1S34.2,32.5,34.4,32.4z"/>
						<path class="st8" d="M34.4,32.4c0,0-0.2,0.2-0.6,0.2c-0.4,0-0.6-0.1-0.6-0.2c0,0,0.3,0.3,0.4,0.3c0.1,0,0.2,0,0.2,0
							c0,0,0.1,0,0.2,0C34.2,32.7,34.4,32.4,34.4,32.4z"/>
					</g>
				</g>
				<path class="st8" d="M34,31.6v0.2c0,0,0,0,0.1-0.1c0,0,0.1,0,0.1,0L34,31.6z"/>
				<g>
					<path class="st8" d="M34.2,32.1c0,0-0.1-0.1-0.1-0.1c-0.1,0-0.2,0.1-0.2,0.1c-0.1,0-0.2-0.1-0.2-0.1c-0.1,0-0.1,0.1-0.1,0.1
						c0,0,0.4,0,0.4,0C33.8,32.1,34.2,32.1,34.2,32.1z"/>
					<path class="st8" d="M34,32.1C34,32.1,34,32,34,32.1c0.1-0.1,0.1,0,0.1,0L34,32.1z"/>
					<path class="st8" d="M33.7,32.1C33.7,32.1,33.6,32,33.7,32.1c-0.1-0.1-0.2,0-0.2,0L33.7,32.1z"/>
				</g>
				<path class="st8" d="M34.4,32.2c0,0,0.1,0.1,0.1,0.2c0,0-0.1,0.1-0.1,0.1s0.1,0,0.1-0.1C34.6,32.4,34.5,32.2,34.4,32.2z"/>
				<path class="st8" d="M33.2,32.2c0,0-0.1,0.1-0.1,0.2c0,0,0.1,0.1,0.1,0.1s-0.1,0-0.1-0.1C33,32.4,33.1,32.2,33.2,32.2z"/>
				<path class="st8" d="M34.2,30.8c0,0,0,0.2,0,0.1c0.1-0.1,0.2-0.1,0.3-0.1c0.1,0,0.3,0,0.4,0C35,31,35.1,31,35.1,31s0,0-0.1-0.1
					c-0.1-0.1-0.2-0.1-0.4-0.1C34.4,30.7,34.2,30.8,34.2,30.8z"/>
				<path class="st8" d="M33.5,30.8c0,0,0,0.2,0,0.1c-0.1-0.1-0.2-0.1-0.3-0.1c-0.1,0-0.3,0-0.4,0C32.6,31,32.6,31,32.6,31
					s0,0,0.1-0.1c0.1-0.1,0.2-0.1,0.4-0.1C33.3,30.7,33.5,30.8,33.5,30.8z"/>
				<g>
					<path class="st8" d="M37.4,36.4c0,0-0.3-1.7-0.7-2.1c-0.4-0.3-1.6-0.8-1.6-0.8s-0.5,0.9-1.3,0.9c-0.9,0-1.4-1-1.4-1
						s-1.2,0.1-1.6,0.6c-0.3,0.3-1,1.4-1,1.4l1.4,0.8l0.3,0.1l-0.1,3.9h4.8l-0.1-3.5l0.2-0.1L37.4,36.4z"/>
					<polygon class="st8" points="35.6,39.6 31.4,40.2 36.2,40.2 36,35.9 					"/>
					<polygon class="st8" points="31.2,36.2 31.6,35.5 31.5,36.3 					"/>
				</g>
				<g>
					<path class="st8" d="M34,29.4c0,0,0.8-0.4,1.2,0.7c0.1,0.2,0.2,1,0.2,1.4c0,0,0.1-0.1,0.2-0.5c0,0,0.3-0.5,0.2-1.3
						c0-0.3-0.7-1.6-1.2-1.3L34,29.4z"/>
					<path class="st8" d="M31.9,29.5c-0.3,1.2,0.3,1.9,0.3,1.9s0-0.1,0-0.3c0-1.1,0.6-1.1,0.6-1.1c-0.3,0.3-0.4,0.6-0.4,0.6
						c0.4-0.4,0.5-0.3,0.9-0.4c1-0.4,1.6-0.7,1.6-0.7l0.3-0.8C34.8,27.6,32.2,28.1,31.9,29.5z"/>
				</g>
			</g>
		</g>
	</g>
	<g>
		<g>
			<path class="st9" d="M114.9,16.2l-7.2,9.5h-0.8l-7-9.6v16h-4.1v-22h4.8l6.9,9.5l6.9-9.5h4.7v22h-4.1V16.2z"/>
			<path class="st9" d="M132.1,25.6h-6.2v6.5h-4.1v-22c3.5,0,6.9,0,10.4,0C142.8,10.1,142.8,25.6,132.1,25.6z M125.9,21.8h6.2
				c5.3,0,5.3-7.8,0-7.8h-6.2V21.8z"/>
			<path class="st9" d="M141.7,32.1v-22h15.8v4h-11.7v6h11v3.8h-11v8.1H141.7z"/>
		</g>
		<g>
			<path class="st8" d="M172,24.5l-0.1-0.5l-0.2-0.5l-0.2-0.4l-0.5-0.8l-0.2-0.2l-0.2-0.2l-0.2-0.2l-0.2-0.2l-0.2-0.2l-0.2-0.2
				l-0.2-0.2l-0.2-0.2l-0.2-0.2l-0.4-0.5l-0.2-0.2l-0.2-0.3l-0.2-0.1l-0.2-0.2l-0.6-0.7l-0.2-0.3l-0.7-1l-0.2-0.4l-0.1-0.3l-0.1-0.3
				l-0.1-0.3l-0.2-0.6l-0.1-0.3l0-0.3V14l0-0.3v-0.5l0-0.4l0-0.3l0-0.3l0.1-0.6l0.1-0.3l0.1-0.3l0.1-0.3l0.2-0.3l0.2-0.2l0.2-0.3
				l0.2-0.2l0.5-0.5l0.2-0.2l0.3-0.2l0.6-0.3l0.3-0.1l0.8-0.3l0.4-0.1l0.6-0.1h0.7l0.6,0h0.3l0.5,0l0.4,0l0.7,0.1l0.3,0.1l0.3,0.1
				l0.3,0.1l0.7,0.5l0.3,0.2l0.2,0.2l0.2,0.2l0.2,0.2l0.2,0.3l0.2,0.3l0.2,0.4l0.1,0.3l0.1,0.3l0,0.3l0.1,0.4v1.1l0,0.3l-0.1,0.3
				l-0.1,0.3l-0.2,0.2l-0.3,0.1l-0.3,0l-0.3,0l-0.3-0.1l-0.3-0.2l-0.2-0.3l-0.1-0.4l0-0.3v-0.7l0-0.3l-0.1-0.3l-0.1-0.3l-0.1-0.3
				l-0.2-0.3l-0.2-0.2l-0.2-0.2l-0.2-0.2l-0.3-0.2l-0.3-0.1l-0.3-0.1l-0.3,0l-1-0.1h-0.3l-0.3,0l-0.6,0.2l-0.6,0.3l-0.2,0.2
				l-0.2,0.2l-0.2,0.2l-0.2,0.3l-0.1,0.3l-0.1,0.3l-0.1,0.3l-0.1,0.3l0,0.3v0.7l0,0.3l0.1,0.3l0.1,0.3l0.1,0.3l0.1,0.3l0.2,0.3
				l0.2,0.4l0.2,0.4l0.3,0.6l0.8,1l0.2,0.2l0.7,0.7l0.8,1l0.5,0.5l0.2,0.2l0.4,0.5l0.2,0.2l0.2,0.3l0.2,0.2l0.1,0.3l0.2,0.3l0.3,0.6
				l0.1,0.3l0.1,0.3l0.1,0.3l0.1,0.3l0.1,0.3l0,0.3l0.1,0.3l0,0.3l0,0.3l-0.1,0.6l-0.1,0.6l0,0.3l0,0.3l-0.1,0.3l-0.1,0.3l-0.1,0.3
				l-0.1,0.3l-0.4,0.8l-0.2,0.3l-0.2,0.2l-0.2,0.2l-0.2,0.1l-0.3,0.2l-0.2,0.2l-0.6,0.4l-0.6,0.3l-0.3,0.2l-0.3,0.1l-0.3,0.1
				l-0.2,0.1L170,32l-0.3,0.1l-0.3,0l-0.2,0.1l-1,0.1h-0.9l-0.9-0.1H166l-0.3-0.1l-0.5-0.1l-0.7-0.2l-0.3-0.1l-0.2-0.2l-0.3-0.2
				l-0.6-0.4l-0.6-0.6l-0.2-0.2l-0.3-0.5l-0.2-0.3l-0.2-0.2l-0.2-0.6l-0.1-0.3l-0.1-0.4l-0.1-0.5l-0.1-0.3l0-0.3v-0.7l0-0.3V25
				l0-0.3l0.2-0.9l0.1-0.4l0.1-0.5l0.1-0.3l0.3-0.3l0.5-0.2h0.5l0.5,0.1l0.3,0.2l0.2,0.3v0.4l0,0.3l-0.1,0.3l-0.1,0.3l0,0.3
				l-0.1,0.3v1l0.1,0.9l0.1,0.3l0.3,0.9l0.2,0.3l0.2,0.3l0.1,0.2l0.2,0.3l0.2,0.2l0.2,0.2l0.3,0.2l0.2,0.2l0.3,0.2l0.3,0.1l0.3,0.1
				l0.3,0.1l0.3,0h0.4l1-0.1l0.4,0l0.3-0.1l0.6-0.2l0.3-0.1l0.3-0.2l0.3-0.3l0.3-0.3l0.2-0.3l0.2-0.3l0.2-0.4l0.1-0.3l0.1-0.4
				l0.1-0.5l0.1-0.5l0-0.3l0-0.5l0-0.4L172,24.5z"/>
			<path class="st8" d="M187.6,23.6l-0.2,0.2l-0.4,0.5l-0.5,0.4l-0.2,0.2L186,25l-0.2,0.1l-0.3,0.2l-0.2,0.1l-0.3,0.1l-0.3,0.1
				l-0.3,0.1l-0.3,0l-0.3,0.1l-0.4,0l-0.4,0.1l-0.3,0h-0.3l-0.6-0.1l-0.6,0l-0.3,0l-0.9-0.2h-0.2l-0.2,0.1l-0.1,0.2v0.3l0,0.3v0.6
				l0,0.3l0.1,0.3l0.2,0.6l0.3,0.6l0.2,0.2l0.2,0.2l0.6,0.3l0.3,0.1l0.3,0.1l0.2,0l0.3,0.1l0.3,0h0.3l0.3,0l0.9-0.2l0.3-0.1l0.3-0.1
				l0.3-0.1l0.6-0.2l0.6-0.3l0.5-0.4l0.2-0.2l0.2-0.2l0.5-0.5l0.4-0.5l0.2-0.2l0.2-0.3l0.3-0.5l0.2-0.3l0.1-0.3l0.2-0.3l0.1-0.3
				l0.2-0.2l0.1-0.3l0.1-0.3l0.1-0.3l0.2-0.3l0.2-0.2h0.3l0.3,0.2l0.2,0.3l0,0.3l-0.1,0.3l-0.2,0.4l-0.2,0.4l-0.2,0.4l-0.2,0.4
				l-0.2,0.3l-0.3,0.6l-0.1,0.2l-0.2,0.3l-0.3,0.5l-0.2,0.2l-0.2,0.2l-0.2,0.2l-0.2,0.3l-0.1,0.1l-0.2,0.3l-0.2,0.2l-0.5,0.4
				l-0.3,0.3l-0.3,0.3l-0.6,0.3l-0.9,0.4l-0.3,0.1l-0.3,0.1l-0.5,0.1l-0.4,0.1l-0.7,0.1l-0.5,0l-0.4,0h-0.3l-1.3-0.1l-0.3-0.1
				l-0.3-0.1l-0.3-0.1l-0.3-0.1l-0.6-0.3l-0.3-0.1l-0.2-0.2l-0.2-0.2l-0.1-0.2l-0.2-0.3l-0.2-0.2l-0.2-0.3l-0.1-0.2l-0.1-0.3
				l-0.1-0.3l-0.1-0.3l-0.1-0.3l-0.1-0.3l-0.1-0.3l-0.1-0.9v-0.7l0-0.3v-0.3l0.2-0.9l0.1-0.3l0.1-0.3l0.1-0.3l0.1-0.3l0.1-0.3
				l0.1-0.4l0.2-0.4l0.2-0.3l0.2-0.4l0.2-0.3l0.1-0.3l0.2-0.2l0.2-0.2l0.5-0.6l0.5-0.5l0.3-0.2l0.3-0.2l0.3-0.2l0.3-0.2l0.3-0.2
				l0.3-0.2l0.3-0.1l0.5-0.2l0.7-0.2l0.6-0.1l0.5-0.1h0.8l0.5,0.1l0.6,0.1l0.5,0.1l0.3,0.1l0.3,0.1l0.3,0.1l0.2,0.1l0.5,0.4l0.2,0.2
				l0.2,0.3l0.2,0.4l0.1,0.3l0.1,0.3l0,0.3v0.4l0,0.5l0,0.3l-0.1,0.4l-0.1,0.4l-0.1,0.3L188,23l-0.2,0.3L187.6,23.6z M183.4,19.4
				l-0.5,0.2l-0.4,0.2l-0.3,0.2l-0.5,0.4l-0.3,0.3l-0.3,0.3l-0.2,0.3l-0.2,0.4l-0.2,0.3l-0.2,0.3l-0.2,0.4l-0.1,0.4l-0.1,0.3
				l-0.1,0.3l0,0.2l0.2,0.2l0.5,0.1l0.7,0l0.3,0h1l0.3-0.1l0.3-0.1l0.3-0.1l0.2-0.1l0.3-0.2l0.2-0.2l0.2-0.2l0.2-0.2l0.2-0.2
				l0.2-0.3l0.2-0.2l0.1-0.3l0.2-0.3l0.2-0.6l0.1-0.3l0-0.3l0-0.3l-0.1-0.3l-0.2-0.2l-0.3-0.2l-0.3-0.1l-0.3-0.1l-0.3,0l-0.3,0.1
				L183.4,19.4z"/>
			<path class="st8" d="M191.7,16.6l-0.3-0.9l0-0.3v-0.3l0.1-0.3l0.1-0.3l0.2-0.2l0.2-0.2l0.2-0.2l0.3-0.1l0.3-0.1h0.3l0.3,0.1
				l0.3,0.2l0.2,0.2l0.1,0.3l0.1,0.3v0.9l-0.1,0.3v0.3l0.1,0.3l0.2,0.2l0.2,0.2l0.2,0.2l0.2,0.3l0.4,0.5l0.2,0.2l0.5,0.5l0.2,0.3
				l0.1,0.2l0.2,0.3l0.2,0.2l0.2,0.2l0.3,0.6l0.1,0.3l0.1,0.4l0.1,0.5l0,0.3l-0.1,0.3l-0.1,0.3l-0.2,0.2l-0.3,0.6l-0.2,0.2l-0.2,0.3
				l-0.2,0.2l-0.2,0.3l-0.2,0.3l-0.2,0.3l-0.2,0.3l-0.6,1.2l-0.1,0.3l-0.1,0.3l-0.1,0.3l-0.1,0.3l-0.1,0.3l0,0.3v0.3l0.1,0.7
				l0.2,0.3l0.2,0.3l0.2,0.2l0.3,0.2l0.3,0.1h0.7l0.3-0.1l0.3-0.1l0.3-0.1l0.2-0.2l0.5-0.3l0.3-0.2l0.2-0.2l0.2-0.2l0.2-0.3l0.6-0.7
				l0.5-0.8l0.2-0.2l0.2-0.3L201,26l0.1-0.3l0.2-0.3l0.1-0.2l0.2-0.4l0.1-0.3l0.1-0.3L202,24l0.3-0.2l0.5,0.1l0.3,0.3v0.4L203,25
				l-0.3,0.6l-0.1,0.3l-0.2,0.3l-0.3,0.6l-0.3,0.6l-0.2,0.3l-0.1,0.2l-0.2,0.3l-0.3,0.6l-0.4,0.6l-0.3,0.4l-0.2,0.3l-0.4,0.5
				l-0.2,0.2l-0.4,0.4l-0.3,0.2l-0.3,0.2l-0.6,0.3l-0.3,0.1l-0.3,0.1l-0.3,0.1l-0.3,0.1l-0.3,0.1h-0.8l-0.5,0l-0.7-0.1l-0.3-0.1
				l-0.3-0.2l-0.5-0.3l-0.2-0.2l-0.2-0.2l-0.2-0.3l-0.2-0.2l-0.1-0.3l-0.1-0.3l-0.1-0.3l-0.1-0.3l-0.1-0.3l0-0.3v-0.3l0.1-1.3
				l0.1-0.3l0.1-0.3l0.1-0.3l0.2-0.4l0.2-0.4l0.2-0.3l0.2-0.4l0.2-0.3l0.2-0.3l0.2-0.4l0.3-0.4l0.2-0.3l0.3-0.5l0.4-0.6l0.2-0.4
				l0.1-0.5l-0.1-0.4l-0.3-0.6l-0.2-0.3l-0.6-0.6l-0.2-0.2l-0.3-0.2l-0.3,0.1l-0.1,0.3l-0.1,0.3l-0.1,0.3l-0.1,0.3l-0.1,0.3
				l-0.1,0.3l-0.3,0.8l-0.1,0.3l-0.1,0.3l-0.1,0.3l-0.2,0.4l-0.2,0.4l-0.1,0.3l-0.2,0.4l-0.2,0.4l-0.2,0.3l-0.2,0.4l-0.2,0.4
				l-0.2,0.3l-0.2,0.2h-0.3l-0.3-0.2l-0.2-0.2l0-0.3l0.1-0.3l0.1-0.3l0.1-0.3l0.1-0.3l0.3-0.6l0.1-0.2l0.1-0.3l0.1-0.3l0.1-0.3
				l0.1-0.3l0.1-0.3l0.1-0.3l0.3-0.6l0.1-0.3l0.1-0.3l0.1-0.3l0.1-0.3l0.1-0.3l0.1-0.3l0.1-0.3l0.1-0.3l0.1-0.3v-0.3l-0.1-0.3
				L191.7,16.6z"/>
			<path class="st8" d="M207.5,28.9L207.5,28.9l-0.1,0.1c-0.1,0.1-0.2,0.2-0.3,0.3c-0.1,0.1-0.1,0.1-0.2,0.1l-0.1,0.1l-0.5,0.3
				l-0.5,0.2l-0.6,0.1l-0.5,0l-0.3-0.1l-0.2-0.2l-0.2-0.3l-0.1-0.4l-0.1-0.5v-0.3l0-0.3l0-0.3l0-0.4l0.1-0.5l0.1-0.3l0.2-0.8
				l0.1-0.3l0.1-0.5l0.1-0.6l0.1-0.5l0.2-0.7l0.1-0.5l0.1-0.3l0.1-0.5l0.2-0.5l0.1-0.5l0.1-0.3l0.1-0.3L206,20l0.1-0.3l0.1-0.3
				l0.2-0.4l0.1-0.4l0.1-0.3V18l-0.2-0.2l-0.3-0.1l-0.3-0.1l-0.3-0.1h-0.7l-0.3,0.1l-0.3,0.1l-0.2,0.2l-0.1,0.3l-0.1,0.3l-0.1,0.3
				l-0.1,0.3l-0.1,0.3l-0.1,0.3l-0.1,0.4l-0.1,0.3l-0.1,0.3l-0.1,0.4l-0.1,0.6l-0.1,0.3l-0.1,0.3l-0.1,0.3l-0.1,0.3l-0.1,0.3
				l-0.1,0.6l-0.1,0.4l-0.1,0.4l-0.1,0.3l-0.1,0.3l0,0.3l-0.1,0.3l-0.1,0.3l-0.2,0.8l-0.1,0.4l-0.1,0.5l-0.1,0.4l0,0.3v0.3l0,0.3
				v0.3l0.1,0.3l0.1,0.3l0.1,0.3l0.1,0.3l0.4,0.5l0.2,0.2l0.2,0.2l0.3,0.2l0.2,0.1l0.3,0.1l0.3,0.1h0.3l0.9,0.1l0.3,0l0.4,0l0.5-0.1
				l0.3-0.1l0.3-0.1c0,0,2.3-0.9,3.7-2.8C211.6,27.3,207.5,28.9,207.5,28.9z"/>
			<path class="st8" d="M225.4,24.4v0.4l-0.1,0.3l-0.3,0.6l-0.3,0.5l-0.2,0.3l-0.1,0.3l-0.2,0.3l-0.1,0.2l-0.2,0.3l-0.2,0.3
				l-0.2,0.2l-0.2,0.3l-0.2,0.2l-0.3,0.6l-0.6,0.7l-0.4,0.5l-0.2,0.2l-0.2,0.2l-0.2,0.2l-0.8,0.6l-0.2,0.2l-0.3,0.1l-0.3,0.1
				l-0.3,0.1l-0.6,0.1H218l-0.4,0l-0.3-0.1L217,32l-0.3-0.2l-0.2-0.2l-0.2-0.2l-0.2-0.3l-0.1-0.3l-0.1-0.3l-0.1-0.3l0-0.3v-0.3
				l0.1-0.6l0.1-0.3l0.1-0.3l0.1-0.6l0.1-0.3l0.1-0.3l0.1-0.3l0.1-0.3l0.3-0.9l0-0.3L217,25l0.1-0.3l0.1-0.3l0.1-0.3l0.2-0.6
				l0.1-0.4l0.1-0.5l0.2-0.6l0.1-0.3l0.1-0.2l0.1-0.3l0.1-0.3l0.1-0.3l0.2-0.9l0.1-0.3l0.1-0.4l0.1-0.5l0.1-0.3l0.1-0.3l0.2-0.2
				l0.3-0.1l0.3,0l0.3,0l0.6,0.1l0.6,0.2l0.2,0.2v0.3l-0.1,0.3l-0.1,0.4l-0.1,0.5l-0.2,0.6l-0.1,0.3l-0.1,0.3l-0.1,0.3l-0.1,0.4
				l-0.3,1l-0.1,0.3l-0.1,0.5L220,24l-0.1,0.3l-0.1,0.3l-0.1,0.3l-0.2,0.6l-0.1,0.3l-0.2,0.9l-0.2,0.6l-0.1,0.3l-0.1,0.5l-0.1,0.6
				l-0.1,0.6l0.1,0.5l0.3,0.4l0.4,0.1l0.3,0l0.3-0.1l0.2-0.2l0.3-0.2l1.1-1.1l0.2-0.2l0.2-0.2l0.2-0.3l0.3-0.6l0.2-0.2l0.1-0.2
				l0.2-0.3l0.2-0.3l0.1-0.3l0.3-0.6l0.4-0.8l0.2-0.3l0.3-0.2l0.5,0.1L225.4,24.4z M219.8,13.7l0.2-0.3l0.3-0.2l0.3-0.2l0.3-0.1
				l0.3-0.1h0.3l0.3,0.1l0.3,0.2l0.2,0.2l0.2,0.2l0.2,0.3l0.1,0.3l0,0.3v0.3l-0.1,0.3l-0.2,0.3l-0.2,0.3l-0.2,0.2l-0.3,0.2l-0.3,0.1
				l-0.3,0.1l-0.3,0l-0.3-0.1l-0.6-0.3l-0.2-0.2l-0.2-0.3l-0.1-0.3l0-0.3l0-0.3l0.1-0.3L219.8,13.7z"/>
			<path class="st8" d="M239,24.4v0.4l-0.1,0.3l-0.1,0.3l-0.1,0.3l-0.2,0.3l-0.2,0.4l-0.3,0.4l-0.3,0.4l-0.5,0.8l-0.2,0.3l-0.2,0.2
				l-0.2,0.2l-0.6,0.7l-0.2,0.2l-0.2,0.2l-0.2,0.2l-0.5,0.3l-0.2,0.2l-0.2,0.2L234,31l-0.3,0.2l-0.3,0.1l-0.3,0.2l-0.4,0.2l-0.4,0.1
				l-0.4,0.1l-0.4,0.1l-0.4,0.1l-0.3,0.1l-0.1,0.1l-0.2,0.3l-0.1,0.2l-0.2,0.3l-0.2,0.3l-0.1,0.2l0.1,0.1l0.2,0.1l0.3,0.1l0.3,0.1
				l0.3,0.1l0.2,0.1l0.2,0.2l0.2,0.2l0.2,0.3l0.1,0.3l0.1,0.3V36l-0.1,0.5l-0.1,0.4l-0.1,0.3l-0.1,0.3l-0.6,0.7l-0.2,0.2l-0.2,0.2
				l-0.3,0.1l-0.3,0.1l-0.2,0.1l-0.3,0.1l-0.3,0.1l-0.3,0l-0.3,0l-0.4-0.1l-0.5-0.1l-0.4-0.1l-0.6-0.2l-0.3-0.2l-0.6-0.3l-0.2-0.2
				l-0.1-0.3l0.1-0.3l0.1-0.3l0.2-0.2l0.2,0l0.6,0.2l0.4,0.2l0.3,0.1l0.3,0.1h0.7l0.3,0l0.3-0.1l0.3-0.2l0.1-0.2l0.3-0.3l0.1-0.4
				v-0.5l-0.2-0.5l-0.5-0.3l-0.5-0.1h-0.5l-0.3-0.1l-0.2-0.2l0-0.3l0.5-0.9l0.2-0.4l0.2-0.2l0.1-0.3l0.1-0.2h-0.1l-0.3-0.1l-0.3,0
				L228,32l-0.3-0.1l-0.4-0.2l-0.4-0.2l-0.3-0.2l-0.3-0.3l-0.3-0.3l-0.2-0.2l-0.2-0.2l-0.2-0.2l-0.1-0.3l-0.2-0.3l-0.2-0.4l-0.2-0.4
				l-0.1-0.3l-0.1-0.5l-0.1-0.4l0-0.3l0-0.3v-0.6l0-0.3l0-0.3l0-0.3l0.1-0.4l0.1-0.5l0.1-0.3l0.1-0.3l0.2-0.7l0.2-0.4l0.2-0.3
				l0.6-1.1L226,21l0.3-0.5l0.5-0.5l0.1-0.1l0.2-0.3l0.2-0.2l0.2-0.2l0.2-0.2l0.2-0.2l0.3-0.2l0.2-0.2l0.3-0.1l0.3-0.2l0.2-0.1
				l0.3-0.1l0.4-0.2l0.7-0.2l0.4-0.1l0.3-0.1l0.3,0l0.3,0h0.6l0.3,0l0.5,0.1l0.5,0.1l0.5,0.1l0.3,0.1l0.2,0.1l0.2,0.2l0.2,0.2
				l0.2,0.2l0.2,0.2l0.1,0.3l0.1,0.4l0.1,0.4l0,0.3l0,0.4l-0.1,0.5l-0.1,0.3l-0.1,0.3l-0.2,0.3l-0.2,0.3l-0.2,0.3l-0.2,0.2l-0.2,0.2
				l-0.3,0.1l-0.5,0.1h-0.6l-0.6-0.1l-0.3-0.2v-0.3l0.2-0.3l0.2-0.4l0.2-0.3l0.1-0.3l0.1-0.3l0.1-0.3v-0.3l-0.1-0.3l-0.2-0.3
				l-0.3-0.2l-0.3-0.1l-0.3,0l-0.3,0l-0.4,0.1l-0.4,0.1l-0.3,0.1l-0.2,0.2l-0.3,0.2l-0.2,0.2l-0.3,0.2l-0.3,0.3l-0.2,0.2l-0.2,0.3
				l-0.3,0.4l-0.2,0.4l-0.1,0.3l-0.2,0.3l-0.1,0.2l-0.1,0.3l-0.1,0.3l-0.1,0.3l-0.1,0.3l-0.1,0.5l-0.1,0.4l-0.1,0.3l-0.1,0.4l0,0.5
				l0,0.3v0.5l0,0.6l0.1,0.5l0.1,0.3l0.3,0.7l0.2,0.3l0.2,0.2l0.2,0.2l0.4,0.2l0.4,0.2l0.3,0.1l0.5,0.1h0.8l0.8-0.1l0.3-0.1l0.4-0.1
				l0.3-0.1l0.4-0.2l0.4-0.2l0.8-0.5l0.3-0.3l0.3-0.3l0.5-0.4l0.4-0.5l0.2-0.2l0.4-0.5l0.3-0.5l0.2-0.3l0.1-0.2l0.2-0.4l0.2-0.3
				l0.1-0.3l0.2-0.5l0.3-0.2l0.5,0.1L239,24.4z"/>
			<path class="st8" d="M244.7,29.5c-0.2,0.2-0.5,0.3-0.7,0.4l0.1,0l0.3-0.2L244.7,29.5z"/>
			<path class="st8" d="M245,29.2c-0.1,0.1-0.2,0.2-0.4,0.3l0.2-0.2L245,29.2z"/>
			<path class="st8" d="M256.6,19.6"/>
			<path class="st8" d="M259.2,18.4l0.1,0.2l0,0.3l0,0.3l0.1,0.3l0.1,0.3l0.1,0.4l0.1,0.4l0.1,0.3l0.1,0.3l0.1,0.3l0.1,0.3l0.1,0.3
				l0.1,0.3l0.1,0.3l0.1,0.3l0.1,0.3l0.1,0.3L261,24l0.1,0.3l0.1,0.3l0.1,0.3l0.1,0.3l0.1,0.3l0.1,0.3l0.1,0.3v0
				c0.1,0.3,0.1,0.7,0.1,1c0,1-0.3,1.8-0.8,2.3l0,0.1l-0.2,0.2l-0.3,0.2l-0.2,0.1l-0.3,0.1l-0.3,0h-0.3l-0.3-0.1l-0.3-0.1l-0.3-0.1
				l-0.2-0.2l-0.2-0.2l-0.2-0.2l-0.2-0.3l-0.1-0.3l-0.1-0.6l0-0.3l0-0.3v-0.3l0-0.3l-0.2-0.2l-0.4,0l-0.5,0.1l-0.4,0.3l-0.2,0.4
				l-0.1,0.3v0.6l0,0.3l0.2,0.9l0.1,0.3l0.5,0.8l0.2,0.2l0.2,0.2l0.5,0.4l0.3,0.2l0.3,0.1l0.2,0.1l0.3,0.1l0.3,0h0.3l0.5,0l0.6,0
				l0.6-0.1l0.5-0.1l0.3-0.1l0.3-0.2l0.4-0.2l0.3-0.2l0.3-0.3l0.3-0.3l0.2-0.2c0,0,0.1-0.1,0.1-0.1l0.1-0.2l0-0.1
				c0.5-0.7,0.7-1.4,0.7-2.2l0,0V27l0-0.3l-0.1-0.5l-0.1-0.6l-0.1-0.5l-0.1-0.3l-0.3-0.8l-0.1-0.3l-0.1-0.3l-0.1-0.3l-0.2-0.4
				l-0.1-0.4l-0.1-0.3l-0.4-1l-0.2-0.6l-0.2-0.6l-0.2-0.5l-0.1-0.3l-0.1-0.4l-0.1-0.4l0-0.3l0.1-0.3l0.2-0.3l0.1-0.3l0.1-0.3v-0.3
				l-0.1-0.3l-0.2-0.2l-0.3-0.2l-0.3-0.1l-0.3,0l-0.3,0l-0.3,0.1l-0.3,0.1l-0.3,0.1l-0.6,0.3l-0.2,0.2"/>
			<path class="st8" d="M220.1,19.9c-1.1,0.9-2.3,1.6-3.7,2.1c-1.4,0.5-3.1,0.5-4.5-0.1c-0.4-0.2-0.7-0.3-1-0.6
				c-0.3-0.2-0.6-0.5-0.9-0.8c-0.3-0.3-0.5-0.6-0.7-1c-0.2-0.4-0.3-0.7-0.4-1.2c0-0.2-0.1-0.5,0-0.8c0-0.3,0.2-0.7,0.4-0.9
				c0.3-0.3,0.6-0.4,0.9-0.5c0.3,0,0.6,0,0.8,0c0.5,0.1,0.9,0.4,1.3,0.6c0.2,0.1,0.3,0.3,0.5,0.5c0.1,0.1,0.1,0.2,0.2,0.3l0.2,0.2
				c0.4,0.6,0.7,1.4,0.9,2.2c0.1,0.8,0.1,1.6-0.1,2.3c-0.3,1.5-0.9,2.8-1.6,4c-0.4,0.6-0.8,1.2-1.2,1.7c-0.4,0.6-0.9,1.1-1.4,1.6
				c-1,1-2.3,1.8-3.7,2.2l-0.6-1.2c2-1.4,3.5-3.3,4.6-5.5c0.6-1.1,1.1-2.2,1.5-3.2c0.2-0.5,0.3-1.1,0.3-1.6c0-0.5-0.1-1-0.4-1.5
				l-0.1-0.1l0-0.1c0,0-0.1-0.1-0.1-0.1c-0.1-0.1-0.1-0.2-0.2-0.2c-0.1-0.1-0.3-0.3-0.5-0.3c-0.1,0-0.1,0-0.1,0c0,0,0,0,0.1-0.1
				c0,0,0-0.1,0-0.1c0,0,0,0.1,0,0.2c0,0.2,0.1,0.4,0.3,0.6c0.1,0.2,0.3,0.4,0.5,0.6c0.4,0.4,0.8,0.6,1.3,0.8
				c0.9,0.4,2.1,0.4,3.2,0.1c1.1-0.3,2.2-0.9,3.2-1.6L220.1,19.9z"/>
			<path class="st8" d="M261.1,17c-0.8-0.1-1.6,0.3-2.3,0.8c-0.7,0.5-1.4,1.2-2.1,1.8c-0.7,0.7-1.4,1.4-2.2,2.1l-0.6,0.5
				c-0.3,0.2-0.5,0.4-0.8,0.5c-0.5,0.3-1.1,0.5-1.6,0.7c-1.1,0.3-2.2,0.4-3.3,0.4c-1.1-0.1-2.2-0.2-3.3-0.6c-0.5-0.2-1.1-0.5-1.6-1
				c-0.3-0.3-0.5-0.7-0.6-1.2c0-0.5,0.1-0.9,0.3-1.2c0.4-0.6,0.9-0.9,1.4-1.2c0.5-0.2,1-0.4,1.5-0.6l0.4,0.7
				c-0.4,0.3-0.8,0.6-1.1,0.9c-0.3,0.3-0.6,0.7-0.7,0.9c0,0.1,0,0.2,0,0.2c0,0,0,0,0.1,0.1c0.2,0.1,0.6,0.3,1,0.4
				c1.6,0.4,3.6,0.3,5.3-0.1c0.4-0.1,0.8-0.3,1.1-0.4c0.2-0.1,0.3-0.2,0.5-0.3l0.6-0.4c0.8-0.6,1.5-1.2,2.3-1.9
				c0.8-0.6,1.7-1.2,2.7-1.7c1-0.5,2.3-0.8,3.4-0.4L261.1,17z"/>
			<g>
				<path class="st8" d="M247,30.6c0.8-0.6,1.5-1.5,2.2-2.5l0.1-0.3l0.3-0.6l0.2-0.4l0.1-0.3l0.1-0.4l0.1-0.4l0.1-0.3l0.1-0.5l0.2-1
					l0-0.4l0-0.4l0.1-0.4v-1.2l-0.1-0.6l0-0.3l0-0.3l-0.1-0.3l-0.4-0.8l-0.2-0.3l-0.2-0.2l-0.2-0.2l-0.2-0.2l-0.4-0.2l-0.6-0.4
					l-0.3-0.1l-0.3-0.1l-0.3-0.1l-0.5-0.1l-0.6-0.1h-0.8l-0.3,0l-0.3,0l-0.3,0.1l-0.3,0.1l-0.2,0.1l-0.4,0.1l-0.2,0.1l-0.4,0.1
					l-0.3,0.1l-0.4,0.2l-0.4,0.2l-0.3,0.2l-0.3,0.2l-0.2,0.2l-0.5,0.4l-0.5,0.5l-0.2,0.2l-0.3,0.6l-0.2,0.2l-0.2,0.2l-0.2,0.3
					l-0.2,0.3l-0.2,0.4l-0.2,0.4l-0.1,0.3l-0.1,0.3l-0.1,0.3l-0.1,0.3l-0.1,0.3l-0.1,0.3l-0.1,0.4l-0.1,0.6l-0.1,0.3l-0.1,0.3
					l-0.1,0.3v1l0,0.3l0,0.4l0.1,0.6l0.1,0.6l0.2,0.6l0.2,0.3l0.1,0.3l0.2,0.3l0.4,0.5l0.2,0.2l0.6,0.3l0.3,0.1l0.3,0.1l0.2,0.1
					l0.3,0.1l0.4,0.1l0.6,0.1h0.3l0.4,0h0.3l0.3,0l0.4-0.1l0.2-0.1l0.6-0.1l0.4-0.1l0.6-0.2l0.3-0.1l0.6-0.3l0.3-0.1l0.6-0.4
					L247,30.6L247,30.6z M246.8,26.6L246.8,26.6L246.8,26.6c-0.4,0.9-0.9,1.7-1.5,2.4l-0.1,0.1l-0.2,0.1l-0.1,0.1l-0.2,0.2l-0.3,0.2
					l-0.3,0.2l-0.1,0l-0.2,0.1l-0.3,0.1l-0.4,0.1l-0.4,0h-0.5l-0.5-0.1l-0.4-0.2l-0.3-0.2l-0.2-0.4l-0.2-0.5l-0.1-0.6l-0.1-0.6
					l0-0.5l0-0.4l0-0.4l0.1-0.4v-0.3l0-0.3l0.1-0.3l0.1-0.3l0.2-0.6l0.1-0.3l0.1-0.3l0.7-1.4L242,22l0.4-0.5l0.2-0.3l0.2-0.2
					l0.2-0.2l0.2-0.2l0.2-0.2l0.4-0.3l0.3-0.2l0.3-0.2l0.4-0.2l0.3-0.1l0.3-0.1h0.4l0.5,0l0.5,0.1l0.4,0.2l0.3,0.2l0.2,0.3l0.2,0.5
					l0.1,0.6l0,0.6l-0.1,1.2l-0.1,0.6l-0.1,0.5l-0.2,0.9l-0.4,1.3l-0.1,0.3L246.8,26.6z"/>
			</g>
		</g>
	</g>
</g>
<g>
	<path class="st10" d="M102.8,49.5h-6.4c0-3,0-6,0-9h6.3v0.8h-5.4v3.2h5.2v0.8h-5.2v3.2h5.5V49.5z"/>
	<path class="st10" d="M110.4,43.2h1v0l-2.2,3l2.4,3.2v0h-1l-1.9-2.6l-1.9,2.6h-1v0l2.4-3.2l-2.2-3v0h1l1.7,2.5L110.4,43.2z"/>
	<path class="st10" d="M115.1,46.7c0.1,1.3,1.1,2.1,2.4,2.1c0.8,0,1.7-0.3,2.1-0.9l0.6,0.5c-0.6,0.8-1.7,1.2-2.7,1.2
		c-1.9,0-3.3-1.3-3.3-3.3c0-1.9,1.4-3.3,3.2-3.3s3.4,1.1,3.1,3.6H115.1z M119.8,45.9c0-1.4-1.1-2.1-2.3-2.1c-1.3,0-2.2,0.8-2.4,2.1
		H119.8z"/>
	<path class="st10" d="M125,43.2l0.1,1c0.4-0.8,1.3-1.1,2-1.1c0.6,0,1,0.1,1.4,0.4l-0.4,0.7c-0.3-0.2-0.7-0.3-1.1-0.3
		c-1.1,0-2,0.8-2,2v3.6h-0.9v-6.3H125z"/>
	<path class="st10" d="M133,51.3c0.2,0.3,0.5,0.4,0.9,0.5c0.4,0,0.8-0.1,0.9-0.4c0.1-0.5-0.3-0.9-1.2-0.7l-0.2-0.1l0.3-1.1
		c-1.5-0.2-2.6-1.4-2.6-3.2c0-2,1.4-3.2,3.3-3.2c0.8,0,1.6,0.3,2.3,0.9l-0.6,0.5c-0.5-0.5-1.1-0.7-1.7-0.7c-1.3,0-2.4,0.9-2.4,2.4
		c0,1.6,1.1,2.5,2.4,2.5c0.6,0,1.3-0.2,1.8-0.7l0.6,0.6c-0.7,0.7-1.5,1-2.3,1l-0.1,0.6c1.1,0,1.4,0.7,1.2,1.3c-0.2,0.7-0.8,1-1.4,1
		c-0.5,0-1.1-0.2-1.4-0.7L133,51.3z"/>
	<path class="st10" d="M145.2,43.2h0.8c0,2.1,0,4.2,0,6.3h-0.8v-1.3c-0.5,0.9-1.6,1.4-2.5,1.4c-1.8,0-3.2-1.3-3.2-3.3
		c0-2,1.4-3.2,3.2-3.2c1,0,2,0.4,2.5,1.3V43.2z M140.3,46.3c0,1.5,1.1,2.5,2.4,2.5c3.3,0,3.3-4.9,0-4.9
		C141.4,43.8,140.3,44.8,140.3,46.3z"/>
	<path class="st10" d="M159.5,44.4c-0.6-0.5-1.2-0.6-1.9-0.6c-0.9,0-1.7,0.3-1.7,1c0,0.7,0.9,0.9,1.7,1c1.1,0.2,2.6,0.4,2.6,1.9
		c0,1.3-1.3,1.8-2.6,1.8c-1.1,0-2.2-0.4-2.8-1.2l0.5-0.6c0.5,0.7,1.5,1,2.3,1c0.7,0,1.7-0.2,1.7-1.1c0-0.8-0.8-1-1.8-1.1
		c-1.2-0.2-2.5-0.5-2.5-1.8c0-1.3,1.3-1.8,2.5-1.8c0.9,0,1.7,0.3,2.4,0.9L159.5,44.4z"/>
	<path class="st10" d="M164.6,43.2v3.5c0,1.3,0.8,2.1,2.1,2.1c1.2,0,2.1-0.9,2.1-2.2v-3.4h0.8v6.3h-0.8l0-1.1
		c-0.5,0.8-1.4,1.2-2.2,1.2c-1.6,0-2.8-1.1-2.8-2.9v-3.6H164.6z"/>
	<path class="st10" d="M178.9,43.2h0.8c0,2.1,0,4.2,0,6.3h-0.8v-1.3c-0.5,0.9-1.6,1.4-2.5,1.4c-1.8,0-3.2-1.3-3.2-3.3
		c0-2,1.4-3.2,3.2-3.2c1,0,2,0.4,2.5,1.3V43.2z M174.1,46.3c0,1.5,1.1,2.5,2.4,2.5c3.3,0,3.3-4.9,0-4.9
		C175.1,43.8,174.1,44.8,174.1,46.3z"/>
	<path class="st10" d="M194.4,48.6c-0.7,0.7-1.5,1-2.4,1c-1.8,0-3.3-1.2-3.3-3.3c0-2.1,1.4-3.3,3.3-3.3c0.8,0,1.6,0.3,2.3,0.9
		l-0.6,0.5c-0.5-0.5-1.1-0.7-1.7-0.7c-1.3,0-2.4,0.9-2.4,2.5c0,1.6,1.1,2.5,2.4,2.5c0.6,0,1.3-0.2,1.8-0.7L194.4,48.6z"/>
	<path class="st10" d="M198.8,41.2c0,0.8-1.2,0.8-1.2,0S198.8,40.4,198.8,41.2z M197.8,43.1v6.3h0.9v-6.3H197.8z"/>
	<path class="st10" d="M208.8,40.5v9H208l0-1.3c-0.5,0.9-1.5,1.4-2.5,1.4c-1.8,0-3.2-1.2-3.2-3.3c0-2.1,1.4-3.3,3.2-3.3
		c1,0,2,0.4,2.5,1.4v-3.9H208.8z M203.1,46.3c0,1.6,1.1,2.5,2.4,2.5c1.4,0,2.4-1,2.4-2.5c0-1.4-1-2.4-2.4-2.4
		C204.2,43.9,203.1,44.7,203.1,46.3z"/>
	<path class="st10" d="M218.1,43.2h0.8c0,2.1,0,4.2,0,6.3h-0.8v-1.3c-0.5,0.9-1.6,1.4-2.5,1.4c-1.8,0-3.2-1.3-3.2-3.3
		c0-2,1.4-3.2,3.2-3.2c1,0,2,0.4,2.5,1.3V43.2z M213.3,46.3c0,1.5,1.1,2.5,2.4,2.5c3.3,0,3.3-4.9,0-4.9
		C214.4,43.8,213.3,44.8,213.3,46.3z"/>
	<path class="st10" d="M229.1,40.5v9h-0.8l0-1.3c-0.5,0.9-1.5,1.4-2.5,1.4c-1.8,0-3.2-1.2-3.2-3.3c0-2.1,1.4-3.3,3.2-3.3
		c1,0,2,0.4,2.5,1.4v-3.9H229.1z M223.4,46.3c0,1.6,1.1,2.5,2.4,2.5c1.4,0,2.4-1,2.4-2.5c0-1.4-1-2.4-2.4-2.4
		C224.5,43.9,223.4,44.7,223.4,46.3z"/>
	<path class="st10" d="M238.4,43.2h0.8c0,2.1,0,4.2,0,6.3h-0.8v-1.3c-0.5,0.9-1.6,1.4-2.5,1.4c-1.8,0-3.2-1.3-3.2-3.3
		c0-2,1.4-3.2,3.2-3.2c1,0,2,0.4,2.5,1.3V43.2z M233.6,46.3c0,1.5,1.1,2.5,2.4,2.5c3.3,0,3.3-4.9,0-4.9
		C234.7,43.8,233.6,44.8,233.6,46.3z"/>
	<path class="st10" d="M248.3,49.5v-3.5c0-1.4-0.8-2.1-2.1-2.1c-1.2,0-2.1,1-2.1,2.2v3.4h-0.9v-6.3h0.8l0,1.1
		c0.5-0.8,1.3-1.2,2.2-1.2c1.6,0,2.8,1,2.8,2.9v3.6H248.3z"/>
	<path class="st10" d="M254.2,41.2c0,0.8-1.2,0.8-1.2,0S254.2,40.4,254.2,41.2z M253.1,43.1v6.3h0.9v-6.3H253.1z"/>
	<path class="st10" d="M263.3,43.2h0.8c0,2.1,0,4.2,0,6.3h-0.8v-1.3c-0.5,0.9-1.6,1.4-2.5,1.4c-1.8,0-3.2-1.3-3.2-3.3
		c0-2,1.4-3.2,3.2-3.2c1,0,2,0.4,2.5,1.3V43.2z M258.4,46.3c0,1.5,1.1,2.5,2.4,2.5c3.3,0,3.3-4.9,0-4.9
		C259.5,43.8,258.4,44.8,258.4,46.3z"/>
</g>
</svg>
